<svg width="343" height="102" viewBox="0 0 343 102" fill="none" xmlns="http://www.w3.org/2000/svg">
<path d="M46.5956 63.4855C44.4954 63.4855 42.4274 64.8312 42.4274 67.291C42.4274 70.2437 45.2156 70.7855 46.0818 71.0953C46.9481 71.4052 48.6541 71.6221 48.6541 72.6856C48.6541 73.4262 47.8833 73.7046 46.8798 73.7046C45.7602 73.7046 44.8671 73.087 44.3289 72.124L41.9124 73.3993C42.0983 73.9192 43.5017 76.4899 46.8798 76.4899C49.5345 76.4899 51.4928 75.0857 51.4928 72.6496C51.4928 70.7237 50.4489 69.661 47.9679 68.9219C46.0374 68.3464 45.266 68.0146 45.266 67.2191C45.266 66.6265 45.8316 66.2719 46.5956 66.2719C47.8328 66.2719 48.3397 66.9407 48.7683 67.5628L51.1372 66.3079C50.7442 65.5239 49.584 63.4855 46.5956 63.4855ZM1.50488 63.7357V76.2385H4.3424V72.3095H6.2059C8.65361 72.3095 10.5513 70.3982 10.5513 68.0227C10.5513 65.6471 8.65361 63.7357 6.2059 63.7357H1.50488ZM14.7219 63.7357L10.499 76.2385H13.604L14.301 74.0411C15.0138 74.225 15.7623 74.3225 16.532 74.3225C17.3016 74.3225 18.0502 74.225 18.763 74.0411L19.4574 76.2385H22.5613L18.3408 63.7357H14.7219ZM24.3237 63.7357V76.2385H27.1625V72.3155H28.6157L30.8526 76.2385H33.903L31.2962 71.7108C32.6665 71.0618 33.5486 69.5587 33.5486 68.0227C33.5486 65.6462 31.6504 63.7357 29.2912 63.7357H24.3237ZM36.5502 63.7357V76.2385H39.3889V63.7357H36.5502ZM4.3424 66.4144H6.2059C7.07456 66.4144 7.71384 67.1111 7.71384 68.0227C7.71384 68.9341 7.07456 69.6308 6.2059 69.6308H4.3424V66.4144ZM27.1625 66.4144H29.2912C30.0721 66.4144 30.7099 67.151 30.7099 68.1148C30.7099 69.077 30.0721 69.814 29.2912 69.814H27.1625V66.4144ZM16.532 67.0048L17.9995 71.6366C17.5302 71.7576 17.0386 71.821 16.532 71.821C16.0254 71.821 15.5325 71.7576 15.0633 71.6366L16.532 67.0048Z" fill="#4E4E4E"/>
<path d="M15.4099 57.0886V61.0582H16.1389V57.0886H15.4099ZM9.64209 57.0899L11.0097 61.057H11.7863L13.1551 57.0899H12.451L11.3974 60.2691L10.3509 57.0899H9.64209ZM18.9454 57.0899V61.0582H21.1979V60.4343H19.5936V57.0899H18.9454ZM23.3135 57.0899V61.0582H25.5659V60.4343H23.9616V57.0899H23.3135ZM27.6815 57.0899V61.0582H30.0742V60.4343H28.3284V59.3626H29.4178V58.7447H28.3284V57.7125H30.0457V57.0899H27.6815ZM35.2473 57.0899V61.057H36.7957C37.8819 61.057 38.6818 60.1793 38.6818 59.074C38.6818 57.9631 37.8819 57.0899 36.7957 57.0899H35.2473ZM40.9651 57.0899V61.0582H43.3578V60.4343H41.6132V59.3626H42.7026V58.7447H41.6132V57.7125H43.3293V57.0899H40.9651ZM35.8954 57.7137H36.7957C37.545 57.7137 38.0563 58.286 38.0563 59.074C38.0563 59.8564 37.545 60.4343 36.7957 60.4343H35.8954V57.7137Z" fill="#4E4E4E"/>
<path d="M41.9038 42.6392C41.7951 42.6386 41.7058 42.743 41.5791 43.0226C38.7482 49.2648 33.5313 52.2543 28.0059 52.296C17.0022 52.3769 14.4108 43.2613 14.3409 43.0144L19.9573 44.0714C19.9857 44.1327 22.1338 49.1062 27.807 49.1062C33.8073 49.1062 37.9851 43.079 37.9851 36.845C37.9851 31.2371 35.6348 28.0278 32.225 25.51L16.938 32.6342C16.7992 32.6988 16.8203 32.9039 16.9689 32.9383C25.4372 34.9133 26.8742 41.0386 26.474 44.5136C26.4138 45.0319 26.7516 44.9453 27.0772 43.9717C28.23 40.5195 27.4011 35.4929 22.8109 32.6636L31.3085 28.3842C32.329 29.1812 35.6722 31.4497 35.6722 36.845C35.6722 42.2444 32.5758 47.1492 27.807 47.1492C23.0715 47.1492 21.4218 42.2779 21.3967 42.2108L11.2949 39.9939C11.1334 39.9522 10.9783 40.0846 10.9978 40.2514C11.8754 48.0124 18.0454 54.3731 26.9871 54.3731C34.4057 54.3731 39.4432 50.2662 41.5881 44.4613C42.0825 43.1248 42.0614 42.6416 41.9038 42.6392Z" fill="#4E4E4E"/>
<g clip-path="url(#clip0_187_2316)">
<mask id="mask0_187_2316" style="mask-type:luminance" maskUnits="userSpaceOnUse" x="103" y="32" width="90" height="38">
<path d="M193 32.5H103V69.5H193V32.5Z" fill="white"/>
</mask>
<g mask="url(#mask0_187_2316)">
<path d="M113.497 44.1286H114.727V41.4378C114.727 41.1014 114.443 40.8131 114.112 40.8131C113.781 40.8131 113.497 41.1014 113.497 41.4378V44.1286Z" fill="#6A6A6A"/>
<path d="M110.945 44.1286H112.174V41.4378C112.174 41.1014 111.891 40.8131 111.56 40.8131C111.229 40.8131 110.945 41.1014 110.945 41.4378V44.1286Z" fill="#6A6A6A"/>
<path d="M116.052 44.1286H117.282V41.4378C117.282 41.1014 116.998 40.8131 116.667 40.8131C116.336 40.8131 116.052 41.1014 116.052 41.4378V44.1286Z" fill="#6A6A6A"/>
<path d="M114.397 34.2299C115.201 34.374 115.485 35.0948 115.485 35.5753V36.6325H116.241V37.2091C118.18 38.1221 119.552 40.1883 119.552 42.3026V42.3507V44.1766H123.997V42.3507C123.903 36.3922 119.741 32.7883 114.255 32.6922L114.397 34.2299Z" fill="#6A6A6A"/>
<path d="M113.594 35.5753V36.6325H114.682V35.5753C114.682 35.287 114.445 35.0468 114.161 35.0468C113.83 34.9987 113.594 35.287 113.594 35.5753Z" fill="#6A6A6A"/>
<path d="M114.916 47.0598C110.328 45.8584 108.579 44.8494 108.579 41.8702C108.579 39.7558 109.997 37.9299 111.936 37.113V36.6325H112.693V35.6234C112.693 35.0948 113.024 34.374 113.828 34.2779L113.97 32.7403C108.437 32.7403 103.755 36.6325 103.991 41.8702C104.227 47.7324 110.612 49.4143 114.017 50.135C116.713 50.7117 123.192 52.2494 124.8 56.9104C124.753 56.9104 125.368 49.2221 114.916 47.0598Z" fill="#6A6A6A"/>
<path d="M113.404 55.2286C118.038 56.6702 119.221 58.4001 119.221 60.8987C119.221 64.6949 116.336 66.2325 112.694 66.2325C109.242 66.2325 106.262 64.5987 104.276 62.4845L103.519 64.0221C104.985 66.8091 109.1 69.3559 113.64 69.3559C119.552 69.4039 124.565 66.6169 124.565 60.9949C124.565 54.9883 118.086 52.5857 114.491 51.8169C111.654 51.1923 104.56 49.2702 103.283 45.2338C103.283 45.2338 101.864 52.2494 113.404 55.2286Z" fill="#6A6A6A"/>
<path d="M131.232 47.5402C131.232 47.5402 132.036 48.3091 133.077 48.3091C133.644 48.3091 134.117 48.0208 134.117 47.4442C134.117 46.1468 130.665 46.387 130.665 44.1766C130.665 42.9753 131.705 42.1104 133.124 42.1104C134.543 42.1104 135.3 42.8792 135.3 42.8792L134.732 43.9364C134.732 43.9364 134.023 43.3117 133.124 43.3117C132.509 43.3117 132.036 43.648 132.036 44.1766C132.036 45.426 135.489 45.1376 135.489 47.3961C135.489 48.5494 134.59 49.4623 133.077 49.4623C131.469 49.4623 130.57 48.5013 130.57 48.5013L131.232 47.5402Z" fill="#C3C3C3"/>
<path d="M141.071 48.3091C142.395 48.3091 143.483 47.2039 143.483 45.7623C143.483 44.3688 142.395 43.3117 141.071 43.3117C139.746 43.3117 138.659 44.3688 138.659 45.7623C138.659 47.2519 139.699 48.3091 141.071 48.3091ZM141.071 42.1584C143.199 42.1584 144.854 43.7441 144.854 45.8103C144.854 47.9247 143.246 49.5584 141.071 49.5584C138.942 49.5584 137.287 47.9247 137.287 45.8103C137.287 43.7441 138.895 42.1584 141.071 42.1584Z" fill="#C3C3C3"/>
<path d="M149.489 45.6183C150.198 45.6183 150.624 45.1857 150.624 44.5131C150.624 43.8403 150.34 43.4079 149.3 43.4079H148.307V45.6183H149.489ZM146.982 42.2546H149.347C150.151 42.2546 150.482 42.3027 150.813 42.4468C151.523 42.7831 151.996 43.4559 151.996 44.4169C151.996 45.2819 151.523 46.0507 150.766 46.3871C150.766 46.3871 150.861 46.4831 151.002 46.7234L152.516 49.3663H151.05L149.584 46.7234H148.307V49.3663H146.982V42.2546Z" fill="#C3C3C3"/>
<path d="M157.15 48.2611C157.812 48.2611 158.191 47.8286 158.191 47.2039C158.191 46.6273 157.812 46.1949 157.15 46.1949H155.731V48.2611H157.15ZM157.008 45.1857C157.576 45.1857 157.907 44.8013 157.907 44.2728C157.907 43.7442 157.576 43.4079 156.961 43.4079H155.684V45.1857H157.008ZM154.407 42.2546H157.008C158.333 42.2546 159.278 42.9273 159.278 44.0805C159.278 44.7533 158.947 45.3299 158.38 45.6183C159.184 45.8585 159.562 46.5793 159.562 47.3001C159.562 48.7416 158.38 49.3663 157.056 49.3663H154.407V42.2546Z" fill="#C3C3C3"/>
<path d="M165.049 48.3091C166.373 48.3091 167.461 47.2039 167.461 45.7623C167.461 44.3688 166.373 43.3117 165.049 43.3117C163.724 43.3117 162.637 44.3688 162.637 45.7623C162.637 47.2519 163.724 48.3091 165.049 48.3091ZM165.049 42.1584C167.177 42.1584 168.832 43.7441 168.832 45.8103C168.832 47.9247 167.224 49.5584 165.049 49.5584C162.92 49.5584 161.265 47.9247 161.265 45.8103C161.265 43.7441 162.92 42.1584 165.049 42.1584Z" fill="#C3C3C3"/>
<path d="M171.101 42.2546H172.426L175.216 46.3871C175.5 46.8195 175.831 47.4923 175.831 47.4923C175.831 47.4923 175.736 46.8195 175.736 46.3871V42.2546H177.06V49.3663H175.736L172.945 45.2819C172.662 44.8494 172.331 44.1767 172.331 44.1767C172.331 44.1767 172.426 44.8494 172.426 45.2819V49.3663H171.101V42.2546Z" fill="#C3C3C3"/>
<path d="M179.709 42.2546H181.034L183.824 46.3871C184.108 46.8195 184.439 47.4923 184.439 47.4923C184.439 47.4923 184.344 46.8195 184.344 46.3871V42.2546H185.668V49.3663H184.344L181.554 45.2819C181.271 44.8494 180.939 44.1767 180.939 44.1767C180.939 44.1767 181.034 44.8494 181.034 45.2819V49.3663H179.709V42.2546Z" fill="#C3C3C3"/>
<path d="M188.318 42.2546V49.4143H192.858V48.2611H189.643V46.339H192.102V45.2338H189.643V43.3598H192.716V42.2546H188.318Z" fill="#C3C3C3"/>
<path d="M130.62 52.5377H131.944V57.1507C131.944 58.1118 132.606 58.6403 133.599 58.6403C134.592 58.6403 135.254 58.1118 135.254 57.1027V52.4897H136.579V57.1027C136.579 58.7364 135.396 59.7936 133.599 59.7936C131.802 59.7936 130.62 58.6884 130.62 57.1027V52.5377Z" fill="#C3C3C3"/>
<path d="M138.8 52.5857H140.124L142.914 56.7182C143.198 57.1506 143.529 57.8234 143.529 57.8234C143.529 57.8234 143.435 57.1506 143.435 56.7182V52.5857H144.759V59.6974H143.435L140.644 55.613C140.36 55.1805 140.029 54.5078 140.029 54.5078C140.029 54.5078 140.124 55.1805 140.124 55.613V59.6974H138.8V52.5857Z" fill="#C3C3C3"/>
<path d="M148.448 52.5857H147.124V59.6974H148.448V52.5857Z" fill="#C3C3C3"/>
<path d="M149.914 52.5857H151.332L152.94 57.2468C153.082 57.6792 153.224 58.3039 153.224 58.3039H153.271C153.271 58.3039 153.413 57.6792 153.555 57.2468L155.163 52.5857H156.582L153.934 59.6974H152.609L149.914 52.5857Z" fill="#C3C3C3"/>
<path d="M158.002 52.5857H162.353V53.6909H159.326V55.565H161.786V56.6702H159.326V58.5922H162.542V59.7454H158.002V52.5857Z" fill="#C3C3C3"/>
<path d="M166.94 55.9494C167.65 55.9494 168.075 55.5169 168.075 54.8442C168.075 54.1714 167.792 53.739 166.751 53.739H165.758V55.9494H166.94ZM164.434 52.5857H166.799C167.603 52.5857 167.933 52.6338 168.265 52.7779C168.974 53.1143 169.447 53.787 169.447 54.748C169.447 55.613 168.974 56.3818 168.217 56.7182C168.217 56.7182 168.312 56.8143 168.454 57.0546L169.967 59.6974H168.501L167.035 57.0546H165.758V59.6974H164.434V52.5857Z" fill="#C3C3C3"/>
<path d="M171.857 57.9196C171.857 57.9196 172.662 58.6884 173.702 58.6884C174.27 58.6884 174.743 58.4001 174.743 57.8234C174.743 56.526 171.29 56.7663 171.29 54.5559C171.29 53.3546 172.331 52.4897 173.749 52.4897C175.168 52.4897 175.925 53.2585 175.925 53.2585L175.357 54.3157C175.357 54.3157 174.648 53.691 173.749 53.691C173.135 53.691 172.662 54.0274 172.662 54.5559C172.662 55.8053 176.114 55.517 176.114 57.7754C176.114 58.9286 175.215 59.8416 173.702 59.8416C172.094 59.8416 171.196 58.8806 171.196 58.8806L171.857 57.9196Z" fill="#C3C3C3"/>
<path d="M179.237 52.5857H177.912V59.6974H179.237V52.5857Z" fill="#C3C3C3"/>
<path d="M183.114 53.6909H180.75V52.5857H186.851V53.6909H184.438V59.7454H183.114V53.6909Z" fill="#C3C3C3"/>
<path d="M188.365 52.5857V59.6974H192.905V58.5922H189.689V56.6702H192.148V55.565H189.689V53.6909H192.716V52.5857H188.365ZM190.871 50.7598L190.068 52.1052H191.108L192.196 50.7598H190.871Z" fill="#C3C3C3"/>
</g>
</g>
<g clip-path="url(#clip1_187_2316)">
<mask id="mask1_187_2316" style="mask-type:luminance" maskUnits="userSpaceOnUse" x="243" y="36" width="100" height="30">
<path d="M343 36H243V66H343V36Z" fill="white"/>
</mask>
<g mask="url(#mask1_187_2316)">
<path d="M256.451 44.4475V63.0456H260.754V57.5403H262.108C265.092 57.5403 266.569 56.3319 267.307 54.9213C267.851 53.7405 268.104 52.4366 268.045 51.1275H268.04C268.04 49.046 267.43 44.4475 262.487 44.4475H256.451ZM260.754 46.2272L261.171 46.2319C263.065 46.2319 263.706 48.1443 263.706 51.1323C263.706 53.9858 263.064 55.7325 261.106 55.7325H260.754V46.2272Z" fill="#4B3C3C"/>
<path d="M243 38.9422V57.5075H249.036C253.98 57.5075 254.589 52.9419 254.589 50.8603C254.648 49.5511 254.394 48.2471 253.849 47.0666C253.111 45.6573 251.635 44.4476 248.65 44.4476H247.3V38.9422H243ZM247.3 46.2272H247.655C249.613 46.2272 250.255 47.9715 250.255 50.8251C250.255 53.8131 249.614 55.7278 247.72 55.7278H247.3V46.2272Z" fill="#4B3C3C"/>
<path d="M297.445 44.0443C296.082 44.0118 294.721 44.1695 293.398 44.5132V46.5273C293.671 46.4108 293.95 46.3099 294.234 46.2249C295.872 45.7218 298.826 45.3869 298.826 48.4757V48.879H298.761C298.344 48.879 297.732 48.8798 296.994 48.9471C296.209 49.009 295.434 49.1664 294.685 49.4159C293.833 49.6563 293.086 50.1933 292.566 50.9381C292.046 51.683 291.785 52.591 291.826 53.5121C291.826 56.4665 293.653 57.5403 296.189 57.5403H303.095L303.126 48.879C303.126 45.8574 301.136 44.0443 297.445 44.0443ZM298.765 50.5531H298.83V55.688L298.059 55.6904C297.128 55.6544 296.164 55.4555 296.164 53.3739C296.142 53.0058 296.192 52.6369 296.314 52.2906C296.435 51.9443 296.624 51.6284 296.869 51.3629C297.114 51.0975 297.409 50.8883 297.735 50.7489C298.062 50.6094 298.413 50.5427 298.765 50.5531Z" fill="#929292"/>
<path d="M337.412 43.9834C332.597 43.9498 331.409 47.6487 331.409 50.5298C331.409 53.0472 332.342 57.9155 338.634 57.9155C339.947 57.9153 341.254 57.7228 342.517 57.3435V55.1629C339.756 56.2985 335.873 56.433 335.616 50.9612V50.8932H342.999V49.5567C342.999 46.3347 340.943 43.9834 337.412 43.9834ZM337.254 45.8287C338.345 45.8287 338.603 47.367 338.667 48.7103V48.98V49.0198H335.68V48.9189C335.809 47.1399 336.195 45.8287 337.254 45.8287Z" fill="#929292"/>
<path d="M324.956 45.7899C323.639 45.7899 322.997 48.24 323.415 51.8991C323.896 56.3301 327.685 56.3301 330.253 55.1895V57.3721C328.955 57.7455 327.616 57.9372 326.271 57.9423C325.335 58.0227 324.394 57.893 323.509 57.562C322.625 57.231 321.818 56.7063 321.144 56.0229C320.469 55.3396 319.942 54.5135 319.597 53.5998C319.252 52.6862 319.098 51.706 319.145 50.725C319.145 47.905 320.108 44.0107 325.212 44.0107C325.913 43.9526 326.618 44.0509 327.281 44.2991C327.944 44.5472 328.548 44.9396 329.055 45.4502C329.562 45.9608 329.958 46.578 330.221 47.2611C330.482 47.9442 330.602 48.6777 330.572 49.4128H326.492C326.492 47.4657 326.106 45.7874 324.951 45.7874" fill="#929292"/>
<path d="M274.171 44.4478V57.5402H269.902V44.4478H274.171Z" fill="#4B3C3C"/>
<path d="M317.248 57.5401H312.947V49.6842C312.947 46.5953 311.823 46.4272 310.25 46.3936H309.961V57.5389H305.692V44.4141C306.045 44.4477 307.2 44.4813 311.053 44.4813C317.252 44.4813 317.28 47.5029 317.28 49.9195L317.248 57.5401Z" fill="#929292"/>
<path d="M284.826 38.9425V40.8224C284.408 40.8224 283.992 40.8224 283.574 40.856C283.166 40.8739 282.764 40.9648 282.386 41.1249C281.983 41.3077 281.649 41.6233 281.435 42.0236C281.22 42.4238 281.137 42.8866 281.198 43.341V44.4491H284.216V46.3626H281.198V57.5079H276.93V44.3806C276.93 39.5127 280.107 38.9425 283.992 38.9425H284.826Z" fill="#929292"/>
<path d="M291.73 45.9255C291.371 45.9018 291.011 45.9617 290.676 46.101C290.341 46.2403 290.04 46.4554 289.795 46.731C289.549 47.0066 289.365 47.3357 289.256 47.6946C289.146 48.0536 289.114 48.4334 289.162 48.8067V57.5018H284.893V48.6723C284.893 46.0204 287.236 44.006 290.862 44.006H291.729L291.73 45.9255Z" fill="#929292"/>
<path d="M272.046 41.7623C271.501 41.7623 270.968 41.5933 270.515 41.2767C270.062 40.9602 269.709 40.5102 269.5 39.9837C269.292 39.4573 269.237 38.878 269.343 38.3191C269.45 37.7602 269.712 37.2468 270.097 36.8439C270.483 36.4409 270.974 36.1665 271.508 36.0554C272.042 35.9442 272.596 36.0012 273.1 36.2193C273.603 36.4374 274.034 36.8067 274.336 37.2805C274.639 37.7543 274.801 38.3113 274.801 38.8812C274.801 39.2595 274.729 39.6342 274.591 39.9837C274.452 40.3333 274.25 40.6509 273.994 40.9184C273.738 41.186 273.434 41.3982 273.1 41.543C272.766 41.6878 272.407 41.7623 272.046 41.7623Z" fill="#4B3C3C"/>
<path d="M272.046 66C271.501 66 270.968 65.8311 270.515 65.5144C270.062 65.1979 269.709 64.7479 269.5 64.2214C269.292 63.695 269.237 63.1157 269.343 62.5568C269.45 61.9979 269.712 61.4846 270.097 61.0816C270.483 60.6787 270.974 60.4042 271.508 60.2931C272.042 60.1819 272.596 60.239 273.1 60.457C273.603 60.6751 274.034 61.0444 274.336 61.5182C274.639 61.992 274.801 62.5491 274.801 63.1189C274.801 63.4972 274.729 63.8719 274.591 64.2214C274.452 64.571 274.25 64.8886 273.994 65.1561C273.738 65.4237 273.434 65.6359 273.1 65.7807C272.766 65.9255 272.407 66 272.046 66Z" fill="#929292"/>
</g>
</g>
<defs>
<clipPath id="clip0_187_2316">
<rect width="90" height="37" fill="white" transform="translate(103 32.5)"/>
</clipPath>
<clipPath id="clip1_187_2316">
<rect width="100" height="30" fill="white" transform="translate(243 36)"/>
</clipPath>
</defs>
</svg>
