<svg width="1232" height="386" viewBox="0 0 1232 386" fill="none" xmlns="http://www.w3.org/2000/svg">
<g filter="url(#filter0_d_213_3867)">
<path d="M308.602 107.441C299.871 112.439 296.948 123.637 302.083 132.455C307.219 141.273 318.461 144.362 327.193 139.365C335.924 134.367 338.848 123.169 333.713 114.351C328.577 105.532 317.334 102.443 308.602 107.441Z" stroke="black" stroke-width="0.5" shape-rendering="crispEdges"/>
</g>
<g filter="url(#filter1_d_213_3867)">
<path d="M978.17 121.054C969.439 126.052 966.517 137.25 971.652 146.068C976.787 154.886 988.03 157.975 996.761 152.978C1005.49 147.98 1008.42 136.782 1003.28 127.964C998.146 119.146 986.902 116.056 978.17 121.054Z" stroke="black" stroke-width="0.5" shape-rendering="crispEdges"/>
</g>
<g filter="url(#filter2_d_213_3867)">
<mask id="path-3-inside-1_213_3867" fill="white">
<path d="M316.098 179.306C312.24 172.682 311.225 164.792 313.276 157.373C315.326 149.954 320.274 143.613 327.032 139.745C333.789 135.877 341.802 134.799 349.308 136.748C356.814 138.697 363.198 143.513 367.056 150.138L361.953 153.059C358.868 147.761 353.762 143.909 347.76 142.351C341.757 140.792 335.349 141.654 329.945 144.748C324.541 147.841 320.584 152.912 318.944 158.845C317.304 164.778 318.116 171.087 321.201 176.385L316.098 179.306Z"/>
</mask>
<path d="M316.098 179.306C312.24 172.682 311.225 164.792 313.276 157.373C315.326 149.954 320.274 143.613 327.032 139.745C333.789 135.877 341.802 134.799 349.308 136.748C356.814 138.697 363.198 143.513 367.056 150.138L361.953 153.059C358.868 147.761 353.762 143.909 347.76 142.351C341.757 140.792 335.349 141.654 329.945 144.748C324.541 147.841 320.584 152.912 318.944 158.845C317.304 164.778 318.116 171.087 321.201 176.385L316.098 179.306Z" stroke="black" shape-rendering="crispEdges" mask="url(#path-3-inside-1_213_3867)"/>
</g>
<g filter="url(#filter3_d_213_3867)">
<mask id="path-4-inside-2_213_3867" fill="white">
<path d="M985.668 192.919C981.81 186.295 980.795 178.405 982.845 170.986C984.896 163.567 989.844 157.226 996.602 153.358C1003.36 149.49 1011.37 148.412 1018.88 150.361C1026.38 152.31 1032.77 157.127 1036.63 163.751L1031.52 166.672C1028.44 161.374 1023.33 157.523 1017.33 155.964C1011.33 154.405 1004.92 155.267 999.515 158.361C994.111 161.454 990.154 166.525 988.514 172.458C986.874 178.391 987.686 184.7 990.771 189.998L985.668 192.919Z"/>
</mask>
<path d="M985.668 192.919C981.81 186.295 980.795 178.405 982.845 170.986C984.896 163.567 989.844 157.226 996.602 153.358C1003.36 149.49 1011.37 148.412 1018.88 150.361C1026.38 152.31 1032.77 157.127 1036.63 163.751L1031.52 166.672C1028.44 161.374 1023.33 157.523 1017.33 155.964C1011.33 154.405 1004.92 155.267 999.515 158.361C994.111 161.454 990.154 166.525 988.514 172.458C986.874 178.391 987.686 184.7 990.771 189.998L985.668 192.919Z" stroke="black" shape-rendering="crispEdges" mask="url(#path-4-inside-2_213_3867)"/>
</g>
<rect x="0.342778" y="0.0918442" width="443.222" height="38.3293" rx="19.1647" transform="matrix(0.86788 -0.496774 0.503233 0.864151 422.359 306.093)" fill="#F1F1F1" stroke="#C3C3C3" stroke-width="0.5"/>
<rect x="0.342778" y="0.0918442" width="233.712" height="38.3293" rx="19.1647" transform="matrix(0.86788 -0.496774 0.503233 0.864151 169.999 248.818)" fill="#F1F1F1" stroke="#C3C3C3" stroke-width="0.5"/>
<rect x="0.342778" y="0.0918442" width="233.712" height="38.3293" rx="19.1647" transform="matrix(0.86788 -0.496774 0.503233 0.864151 839.568 262.431)" fill="#F1F1F1" stroke="#C3C3C3" stroke-width="0.5"/>
<path d="M596.222 236.644C595.546 237.031 594.901 237.259 594.287 237.328C593.673 237.397 593.119 237.314 592.625 237.081C592.141 236.842 591.739 236.47 591.42 235.964L593.017 235.05C593.367 235.44 593.733 235.654 594.114 235.694C594.495 235.734 594.94 235.608 595.449 235.317C595.912 235.052 596.233 234.776 596.412 234.49C596.594 234.188 596.613 233.913 596.468 233.664C596.339 233.443 596.151 233.311 595.904 233.268C595.657 233.225 595.344 233.251 594.967 233.344L592.9 233.864C592.244 234.03 591.669 234.039 591.176 233.892C590.686 233.729 590.294 233.395 589.998 232.888C589.735 232.436 589.623 231.978 589.661 231.514C589.694 231.04 589.877 230.592 590.21 230.167C590.543 229.743 591.006 229.362 591.599 229.022C592.21 228.673 592.794 228.467 593.351 228.407C593.917 228.341 594.432 228.42 594.897 228.646C595.366 228.857 595.766 229.206 596.098 229.691L594.474 230.621C594.209 230.294 593.893 230.112 593.526 230.076C593.155 230.031 592.756 230.13 592.33 230.374C592.071 230.522 591.863 230.684 591.706 230.86C591.558 231.03 591.468 231.205 591.436 231.383C591.404 231.561 591.437 231.733 591.533 231.899C591.641 232.083 591.799 232.195 592.007 232.236C592.225 232.271 592.523 232.242 592.901 232.148L595.031 231.611C595.711 231.443 596.305 231.435 596.813 231.587C597.316 231.729 597.717 232.058 598.018 232.574C598.286 233.035 598.393 233.515 598.338 234.014C598.277 234.503 598.064 234.975 597.7 235.43C597.335 235.884 596.842 236.289 596.222 236.644ZM603.558 232.224C602.688 232.722 601.952 232.91 601.35 232.787C600.757 232.66 600.254 232.241 599.841 231.531L597.618 227.715L596.355 228.438L595.549 227.056C595.966 226.817 596.248 226.613 596.396 226.442C596.547 226.257 596.605 226.071 596.569 225.882C596.534 225.694 596.416 225.429 596.218 225.088L595.823 224.41L597.379 223.52L598.466 225.387L600.451 224.25L601.256 225.633L599.271 226.769L601.235 230.143C601.466 230.539 601.722 230.767 602.004 230.827C602.29 230.873 602.641 230.776 603.058 230.538C603.391 230.347 603.645 230.189 603.819 230.065L604.665 231.517C604.499 231.636 604.322 231.756 604.133 231.876C603.953 231.991 603.762 232.107 603.558 232.224ZM608.154 229.722C607.636 230.019 607.136 230.2 606.656 230.266C606.171 230.323 605.726 230.258 605.321 230.072C604.911 229.876 604.575 229.553 604.312 229.101C603.957 228.493 603.875 227.895 604.063 227.308C604.256 226.706 604.647 226.138 605.237 225.603C605.827 225.069 606.585 224.537 607.511 224.007L608.149 223.641L608.775 224.684L608.067 225.09C607.41 225.466 606.9 225.819 606.537 226.15C606.174 226.48 605.944 226.796 605.848 227.097C605.761 227.393 605.8 227.684 605.967 227.969C606.09 228.181 606.249 228.336 606.442 228.435C606.629 228.524 606.849 228.552 607.101 228.518C607.348 228.475 607.61 228.374 607.888 228.216C608.249 228.009 608.544 227.754 608.775 227.45C609.005 227.146 609.144 226.833 609.191 226.511C609.233 226.18 609.173 225.876 609.012 225.599L607.675 223.304C607.52 223.037 607.328 222.846 607.1 222.73C606.873 222.615 606.618 222.57 606.337 222.596C606.056 222.621 605.762 222.722 605.457 222.897C604.957 223.183 604.64 223.518 604.506 223.902C604.375 224.272 604.385 224.628 604.536 224.972L602.87 225.926C602.481 225.153 602.421 224.382 602.69 223.614C602.962 222.831 603.617 222.143 604.654 221.55C605.33 221.163 605.965 220.94 606.561 220.882C607.151 220.814 607.682 220.91 608.153 221.169C608.625 221.427 609.033 221.851 609.376 222.441L611.059 225.331C611.209 225.589 611.36 225.742 611.512 225.791C611.673 225.834 611.878 225.784 612.128 225.641L612.828 226.844L611.829 227.416C611.505 227.602 611.186 227.68 610.873 227.65C610.559 227.62 610.302 227.497 610.102 227.28C610.061 227.697 609.867 228.127 609.521 228.571C609.184 229.01 608.728 229.394 608.154 229.722ZM609.749 218.928L611.416 217.974L615.643 225.233L613.977 226.187L609.749 218.928ZM616.34 218.99C616.13 218.63 615.893 218.361 615.628 218.181C615.357 217.992 615.073 217.896 614.776 217.894C614.479 217.892 614.177 217.979 613.872 218.154C613.353 218.45 613.035 218.878 612.916 219.438C612.802 219.983 612.932 220.578 613.308 221.223L611.824 218.994C611.866 218.429 612.037 217.938 612.337 217.521C612.646 217.098 613.037 216.751 613.509 216.481C614.055 216.168 614.591 216.009 615.118 216.002C615.654 215.99 616.154 216.128 616.618 216.416C617.076 216.694 617.469 217.114 617.797 217.677L620.559 222.419L618.892 223.373L616.34 218.99ZM626.724 217.415L625.785 215.962L621.179 208.053L622.846 207.099L628.965 217.607L627.368 218.521L626.724 217.415ZM620.629 212.387C621.176 212.074 621.743 211.903 622.33 211.874C622.922 211.83 623.431 211.951 623.856 212.236L623.995 212.156L627.022 217.355L626.842 217.459C626.833 218.016 626.673 218.526 626.362 218.987C626.054 219.433 625.641 219.805 625.122 220.102C624.474 220.473 623.806 220.64 623.119 220.604C622.44 220.562 621.793 220.33 621.177 219.908C620.57 219.481 620.044 218.885 619.599 218.12C619.153 217.355 618.896 216.605 618.826 215.871C618.76 215.122 618.886 214.448 619.203 213.848C619.515 213.24 619.991 212.752 620.629 212.387ZM621.856 213.602C621.254 213.947 620.906 214.441 620.812 215.084C620.722 215.714 620.891 216.397 621.321 217.134C621.6 217.614 621.925 217.993 622.297 218.271C622.67 218.55 623.063 218.706 623.477 218.739C623.886 218.763 624.29 218.661 624.688 218.433C625.262 218.105 625.596 217.631 625.692 217.01C625.797 216.385 625.624 215.685 625.173 214.911C624.727 214.146 624.208 213.657 623.615 213.443C623.025 213.215 622.439 213.268 621.856 213.602ZM632.869 215.575C632.351 215.872 631.852 216.053 631.371 216.119C630.886 216.176 630.441 216.111 630.036 215.925C629.626 215.729 629.29 215.406 629.027 214.954C628.672 214.346 628.59 213.748 628.778 213.161C628.971 212.559 629.362 211.991 629.952 211.456C630.542 210.922 631.3 210.39 632.226 209.86L632.864 209.494L633.49 210.537L632.782 210.943C632.125 211.319 631.615 211.672 631.252 212.003C630.889 212.334 630.659 212.649 630.563 212.95C630.476 213.246 630.516 213.537 630.682 213.822C630.805 214.034 630.964 214.19 631.157 214.288C631.344 214.377 631.564 214.405 631.816 214.371C632.063 214.329 632.325 214.228 632.603 214.069C632.964 213.862 633.259 213.607 633.49 213.303C633.72 212.999 633.859 212.686 633.906 212.364C633.948 212.033 633.888 211.729 633.727 211.453L632.39 209.157C632.235 208.89 632.043 208.699 631.815 208.583C631.588 208.468 631.333 208.423 631.052 208.449C630.771 208.475 630.477 208.575 630.172 208.75C629.672 209.036 629.355 209.371 629.221 209.755C629.09 210.125 629.1 210.481 629.251 210.825L627.585 211.779C627.196 211.006 627.136 210.235 627.405 209.467C627.677 208.684 628.332 207.996 629.369 207.403C630.045 207.016 630.68 206.793 631.276 206.735C631.866 206.668 632.397 206.763 632.869 207.022C633.34 207.28 633.748 207.705 634.091 208.295L635.774 211.184C635.924 211.442 636.075 211.596 636.227 211.644C636.388 211.687 636.593 211.637 636.843 211.494L637.544 212.697L636.544 213.269C636.22 213.455 635.901 213.533 635.588 213.503C635.274 213.474 635.017 213.35 634.817 213.133C634.776 213.55 634.582 213.98 634.236 214.424C633.899 214.863 633.443 215.247 632.869 215.575ZM634.464 204.781L636.061 203.867L636.81 205.153C636.811 204.71 636.871 204.313 636.988 203.963C637.1 203.604 637.288 203.281 637.553 202.995C637.813 202.699 638.16 202.426 638.595 202.177L639.537 203.795L639.273 203.946C638.81 204.211 638.465 204.55 638.236 204.963C638.012 205.362 637.913 205.806 637.938 206.295C637.973 206.779 638.136 207.27 638.426 207.768L640.358 211.086L638.692 212.04L634.464 204.781ZM648.293 205.069L647.354 203.616L642.748 195.707L644.415 194.753L650.534 205.261L648.937 206.175L648.293 205.069ZM642.198 200.041C642.745 199.728 643.312 199.557 643.899 199.528C644.491 199.484 645 199.605 645.425 199.89L645.564 199.81L648.591 205.009L648.411 205.112C648.402 205.67 648.242 206.18 647.93 206.641C647.623 207.087 647.21 207.459 646.691 207.756C646.043 208.127 645.375 208.294 644.688 208.257C644.009 208.216 643.362 207.984 642.746 207.562C642.139 207.135 641.613 206.539 641.168 205.774C640.722 205.009 640.465 204.259 640.395 203.525C640.329 202.776 640.455 202.102 640.772 201.502C641.084 200.893 641.56 200.406 642.198 200.041ZM643.425 201.256C642.823 201.6 642.475 202.095 642.381 202.738C642.291 203.368 642.46 204.051 642.89 204.788C643.169 205.268 643.494 205.647 643.866 205.925C644.238 206.204 644.632 206.36 645.046 206.393C645.455 206.417 645.859 206.315 646.257 206.087C646.831 205.759 647.165 205.284 647.261 204.664C647.366 204.039 647.193 203.339 646.742 202.565C646.296 201.8 645.777 201.311 645.184 201.097C644.594 200.869 644.008 200.922 643.425 201.256ZM653.182 191.892L654.723 191.01L658.95 198.269L657.409 199.151L653.182 191.892ZM651.998 196.441L659.288 192.268L660.134 193.72L652.843 197.893L651.998 196.441Z" fill="black"/>
<path d="M250.212 218.663L254.211 216.374C255.266 215.77 256.277 215.45 257.243 215.413C258.218 215.371 259.136 215.632 259.996 216.197C260.85 216.753 261.618 217.616 262.299 218.786C262.944 219.893 263.309 220.943 263.395 221.939C263.475 222.925 263.266 223.838 262.767 224.676C262.263 225.506 261.459 226.236 260.358 226.866L256.331 229.172L250.212 218.663ZM259.224 225.396C260.298 224.781 260.95 224.014 261.18 223.096C261.414 222.163 261.167 221.07 260.437 219.816C259.975 219.023 259.461 218.426 258.894 218.026C258.337 217.62 257.728 217.421 257.067 217.431C256.41 217.426 255.706 217.638 254.956 218.068L252.901 219.244L257.169 226.572L259.224 225.396ZM270.137 221.564C269.369 222.003 268.61 222.216 267.861 222.202C267.117 222.174 266.432 221.952 265.807 221.535C265.181 221.119 264.651 220.537 264.217 219.791C263.787 219.053 263.547 218.312 263.496 217.567C263.454 216.817 263.607 216.127 263.957 215.497C264.3 214.857 264.838 214.328 265.569 213.91C266.263 213.512 266.963 213.315 267.668 213.317C268.376 213.304 269.043 213.495 269.666 213.887C270.294 214.266 270.82 214.819 271.244 215.547L271.646 216.238L265.564 219.72L264.888 218.558L269.29 216.039C269.096 215.707 268.845 215.445 268.536 215.253C268.227 215.062 267.888 214.967 267.519 214.969C267.145 214.962 266.772 215.065 266.402 215.277C266.032 215.489 265.749 215.767 265.555 216.112C265.361 216.456 265.283 216.863 265.322 217.333C265.361 217.802 265.539 218.309 265.855 218.853C266.15 219.36 266.482 219.76 266.85 220.053C267.213 220.337 267.604 220.5 268.024 220.542C268.448 220.57 268.882 220.457 269.326 220.203C269.77 219.948 270.096 219.639 270.304 219.274C270.506 218.901 270.578 218.527 270.521 218.154L272.202 217.192C272.374 217.573 272.422 218.037 272.346 218.585C272.274 219.118 272.055 219.654 271.691 220.195C271.322 220.726 270.803 221.182 270.137 221.564ZM277.646 217.265C276.971 217.652 276.326 217.88 275.712 217.948C275.098 218.017 274.544 217.935 274.05 217.701C273.565 217.463 273.163 217.091 272.844 216.585L274.441 215.671C274.791 216.06 275.157 216.275 275.538 216.315C275.919 216.355 276.364 216.229 276.873 215.938C277.336 215.673 277.657 215.397 277.836 215.11C278.018 214.809 278.037 214.534 277.892 214.285C277.763 214.064 277.575 213.932 277.328 213.889C277.081 213.846 276.769 213.871 276.391 213.965L274.324 214.484C273.668 214.651 273.093 214.66 272.6 214.512C272.11 214.35 271.718 214.016 271.423 213.509C271.16 213.057 271.047 212.599 271.086 212.135C271.118 211.661 271.301 211.212 271.635 210.788C271.968 210.364 272.43 209.982 273.023 209.643C273.634 209.293 274.218 209.088 274.775 209.027C275.341 208.961 275.857 209.041 276.321 209.266C276.79 209.478 277.19 209.826 277.523 210.312L275.898 211.242C275.633 210.914 275.317 210.732 274.951 210.696C274.579 210.651 274.18 210.75 273.754 210.994C273.495 211.143 273.287 211.305 273.13 211.48C272.983 211.651 272.893 211.825 272.861 212.003C272.829 212.182 272.861 212.354 272.958 212.519C273.065 212.704 273.223 212.816 273.432 212.856C273.649 212.892 273.947 212.862 274.325 212.769L276.456 212.231C277.136 212.064 277.729 212.055 278.237 212.207C278.74 212.35 279.142 212.679 279.442 213.195C279.711 213.656 279.817 214.136 279.762 214.634C279.701 215.124 279.489 215.596 279.124 216.05C278.759 216.505 278.267 216.91 277.646 217.265ZM277.613 207.311L279.279 206.357L283.506 213.616L281.84 214.57L277.613 207.311ZM275.721 204.061L277.387 203.108L278.393 204.836L276.727 205.79L275.721 204.061ZM290.618 214.264C289.581 214.858 288.648 215.121 287.82 215.055C286.991 214.988 286.267 214.561 285.647 213.773L287.328 212.811C287.646 213.145 288.016 213.314 288.438 213.318C288.86 213.322 289.316 213.184 289.807 212.903C290.455 212.532 290.838 212.141 290.956 211.729C291.08 211.327 290.98 210.849 290.658 210.296L286.093 202.456L287.76 201.502L292.325 209.342C292.921 210.365 293.059 211.281 292.74 212.091C292.427 212.909 291.72 213.634 290.618 214.264ZM283.651 203.54C284.198 203.228 284.765 203.057 285.352 203.028C285.944 202.984 286.452 203.105 286.878 203.39L287.017 203.31L290.044 208.509L289.863 208.612C289.855 209.17 289.695 209.68 289.383 210.141C289.076 210.587 288.662 210.959 288.144 211.256C287.496 211.627 286.828 211.794 286.14 211.757C285.462 211.716 284.815 211.484 284.199 211.062C283.592 210.635 283.066 210.039 282.621 209.274C282.175 208.509 281.918 207.759 281.848 207.025C281.782 206.276 281.908 205.602 282.225 205.002C282.537 204.393 283.013 203.906 283.651 203.54ZM284.878 204.756C284.276 205.1 283.928 205.594 283.834 206.238C283.743 206.868 283.913 207.551 284.342 208.288C284.622 208.768 284.947 209.147 285.319 209.425C285.691 209.704 286.085 209.86 286.499 209.893C286.908 209.917 287.311 209.815 287.709 209.587C288.283 209.259 288.618 208.784 288.714 208.164C288.819 207.539 288.646 206.839 288.195 206.065C287.749 205.3 287.23 204.81 286.636 204.597C286.047 204.369 285.461 204.422 284.878 204.756ZM289.479 200.518L291.145 199.564L295.372 206.823L293.705 207.777L289.479 200.518ZM296.069 200.58C295.859 200.221 295.622 199.951 295.357 199.771C295.086 199.582 294.802 199.486 294.505 199.484C294.208 199.483 293.906 199.569 293.601 199.744C293.082 200.041 292.764 200.469 292.645 201.028C292.531 201.573 292.661 202.168 293.037 202.814L291.553 200.584C291.595 200.02 291.766 199.528 292.066 199.111C292.375 198.688 292.766 198.342 293.238 198.071C293.784 197.759 294.32 197.599 294.847 197.592C295.383 197.58 295.883 197.718 296.347 198.006C296.805 198.284 297.198 198.705 297.526 199.267L300.287 204.01L298.621 204.963L296.069 200.58ZM305.158 201.516C304.39 201.956 303.631 202.169 302.883 202.155C302.138 202.127 301.453 201.904 300.828 201.488C300.203 201.071 299.673 200.49 299.238 199.743C298.808 199.006 298.568 198.265 298.517 197.52C298.475 196.769 298.629 196.079 298.978 195.449C299.321 194.81 299.859 194.281 300.59 193.863C301.285 193.465 301.984 193.267 302.689 193.27C303.398 193.257 304.064 193.447 304.687 193.84C305.315 194.218 305.841 194.772 306.265 195.5L306.667 196.191L300.585 199.673L299.909 198.511L304.311 195.991C304.118 195.66 303.866 195.398 303.557 195.206C303.248 195.014 302.909 194.92 302.54 194.922C302.166 194.915 301.793 195.017 301.423 195.229C301.053 195.441 300.771 195.72 300.576 196.064C300.382 196.409 300.304 196.816 300.343 197.286C300.382 197.755 300.56 198.262 300.876 198.805C301.172 199.312 301.503 199.712 301.872 200.006C302.234 200.289 302.626 200.453 303.045 200.495C303.469 200.523 303.903 200.41 304.347 200.155C304.792 199.901 305.117 199.592 305.325 199.227C305.527 198.853 305.599 198.48 305.543 198.107L307.223 197.145C307.395 197.526 307.443 197.99 307.367 198.537C307.295 199.07 307.077 199.607 306.712 200.147C306.343 200.678 305.825 201.135 305.158 201.516ZM305.535 191.327L307.131 190.413L307.88 191.699C307.881 191.256 307.941 190.859 308.058 190.51C308.17 190.151 308.358 189.828 308.623 189.541C308.883 189.245 309.23 188.972 309.665 188.723L310.607 190.341L310.343 190.492C309.88 190.757 309.535 191.096 309.307 191.509C309.082 191.908 308.983 192.352 309.008 192.841C309.043 193.325 309.206 193.816 309.496 194.314L311.428 197.632L309.762 198.586L305.535 191.327Z" fill="black"/>
<path d="M926.106 242.968C925.087 243.551 924.058 243.839 923.017 243.833C921.986 243.821 921.023 243.524 920.129 242.942L919.229 242.351 918.463 241.512 917.829 240.424C917.196 239.336 916.85 238.256 916.793 237.182C916.736 236.109 916.96 235.127 917.465 234.235C917.975 233.329 918.734 232.587 919.743 232.01C920.622 231.506 921.52 231.226 922.437 231.168C923.349 231.101 924.202 231.252 924.996 231.62C925.8 231.984 926.487 232.537 927.056 233.281L925.209 234.338C924.826 233.893 924.382 233.564 923.874 233.35C923.367 233.137 922.837 233.053 922.284 233.099C921.726 233.136 921.178 233.308 920.641 233.616C919.993 233.987 919.517 234.474 919.215 235.077C918.912 235.681 918.798 236.354 918.873 237.098C918.952 237.827 919.217 238.579 919.668 239.353C920.119 240.127 920.65 240.733 921.262 241.169C921.874 241.605 922.515 241.847 923.184 241.894C923.857 241.926 924.523 241.754 925.18 241.378C925.717 241.071 926.141 240.687 926.453 240.226C926.764 239.765 926.949 239.266 927.007 238.729C927.074 238.187 927.011 237.645 926.819 237.103L928.666 236.046C929.027 236.921 929.165 237.794 929.081 238.666C929.005 239.533 928.71 240.341 928.196 241.09C927.691 241.833 926.995 242.46 926.106 242.968ZM935.607 237.53C934.876 237.948 934.136 238.151 933.387 238.137C932.648 238.118 931.956 237.905 931.313 237.499C930.664 237.084 930.124 236.508 929.695 235.77C929.26 235.024 929.022 234.275 928.98 233.525C928.947 232.77 929.11 232.074 929.468 231.439C929.83 230.789 930.382 230.252 931.122 229.828C931.854 229.41 932.589 229.21 933.329 229.229C934.072 229.234 934.761 229.442 935.395 229.853C936.03 230.264 936.564 230.843 936.999 231.59C937.428 232.327 937.662 233.078 937.7 233.843C937.742 234.593 937.582 235.293 937.22 235.943C936.867 236.587 936.329 237.116 935.607 237.53ZM934.772 236.127C935.152 235.91 935.426 235.618 935.595 235.251C935.773 234.879 935.833 234.463 935.776 234.004C935.719 233.545 935.548 233.072 935.263 232.583C934.979 232.095 934.653 231.716 934.286 231.446C933.914 231.168 933.521 231.012 933.107 230.979C932.702 230.94 932.309 231.029 931.93 231.247C931.55 231.464 931.271 231.759 931.093 232.131C930.924 232.498 930.869 232.911 930.926 233.37C930.978 233.819 931.146 234.288 931.431 234.777C931.715 235.265 932.043 235.649 932.416 235.928C932.788 236.206 933.176 236.365 933.581 236.403C933.996 236.437 934.393 236.345 934.772 236.127ZM936.106 227.271L937.772 226.317L941.999 233.576L940.333 234.53L936.106 227.271ZM942.696 227.333C942.487 226.973 942.25 226.704 941.984 226.524C941.714 226.335 941.43 226.239 941.132 226.237C940.835 226.235 940.534 226.322 940.228 226.497C939.71 226.793 939.391 227.221 939.273 227.781C939.158 228.326 939.289 228.921 939.664 229.566L938.181 227.337C938.222 226.772 938.393 226.281 938.693 225.864C939.002 225.441 939.393 225.094 939.865 224.824C940.411 224.511 940.948 224.352 941.475 224.345C942.011 224.333 942.511 224.471 942.975 224.759C943.433 225.037 943.826 225.457 944.153 226.02L946.915 230.762L945.249 231.716L942.696 227.333ZM951.369 228.508C950.693 228.894 950.048 229.122 949.434 229.191C948.82 229.26 948.266 229.178 947.772 228.944C947.288 228.705 946.886 228.333 946.567 227.828L948.163 226.914C948.514 227.303 948.879 227.518 949.261 227.558C949.642 227.598 950.087 227.472 950.596 227.18C951.059 226.915 951.38 226.64 951.558 226.353C951.741 226.052 951.76 225.777 951.615 225.528C951.486 225.307 951.298 225.175 951.051 225.132C950.804 225.089 950.491 225.114 950.114 225.207L948.046 225.727C947.39 225.894 946.816 225.903 946.322 225.755C945.833 225.593 945.441 225.258 945.145 224.751C944.882 224.3 944.77 223.842 944.808 223.377C944.841 222.904 945.024 222.455 945.357 222.031C945.69 221.607 946.153 221.225 946.745 220.886L947.94 220.27C949.064 220.204 949.579 220.284 950.044 220.509C950.512 220.721 950.913 221.069 951.245 221.555L949.62 222.485C949.356 222.157 949.04 221.975 948.673 221.939C948.301 221.894 947.902 221.993 947.477 222.237C947.217 222.385 947.009 222.547 946.853 222.723C946.705 222.894 946.615 223.068 946.583 223.246C946.551 223.424 946.583 223.596 946.68 223.762C946.787 223.947 946.945 224.059 947.154 224.099C947.372 224.134 947.67 224.105 948.047 224.012L950.178 223.474C950.858 223.306 951.452 223.298 951.96 223.45C952.463 223.592 952.864 223.922 953.165 224.438C953.433 224.899 953.54 225.379 953.485 225.877C953.424 226.367 953.211 226.839 952.847 227.293C952.482 227.748 951.989 228.153 951.369 228.508ZM962.018 222.117L960.352 223.071L956.125 215.812L957.791 214.858L962.018 222.117ZM955.428 222.055C955.637 222.414 955.877 222.689 956.148 222.878C956.413 223.058 956.694 223.149 956.992 223.151C957.289 223.153 957.59 223.066 957.896 222.891C958.414 222.595 958.731 222.174 958.846 221.629C958.964 221.069 958.836 220.467 958.46 219.822L959.943 222.051C959.902 222.616 959.726 223.109 959.417 223.532C959.117 223.95 958.731 224.294 958.259 224.564C957.713 224.876 957.172 225.039 956.636 225.051C956.109 225.057 955.616 224.921 955.158 224.643C954.694 224.355 954.298 223.93 953.971 223.368L951.209 218.626L952.875 217.672L955.428 222.055ZM970.043 211.495C969.743 210.979 969.397 210.661 969.006 210.541C968.624 210.415 968.248 210.458 967.878 210.67C967.609 210.824 967.395 211.039 967.235 211.315C967.075 211.591 967.004 211.914 967.022 212.284C967.049 212.65 967.181 213.035 967.418 213.441L965.866 211.858C965.871 211.167 966.022 210.589 966.319 210.124C966.616 209.659 967.015 209.284 967.515 208.997C968.024 208.706 968.525 208.56 969.019 208.56C969.522 208.555 969.989 208.7 970.419 208.994C970.854 209.274 971.238 209.699 971.57 210.271L974.356 215.055L972.676 216.017L970.043 211.495ZM959.479 213.892L961.145 212.939L965.372 220.197L963.706 221.151L959.479 213.892ZM965.544 214.071C965.243 213.554 964.898 213.236 964.507 213.116C964.125 212.99 963.749 213.033 963.379 213.245C963.11 213.399 962.896 213.614 962.736 213.89C962.576 214.166 962.509 214.487 962.537 214.852C962.564 215.217 962.696 215.602 962.932 216.008L961.553 213.958C961.582 213.413 961.732 212.94 962.004 212.539C962.271 212.128 962.618 211.801 963.043 211.557C963.516 211.287 964.004 211.161 964.508 211.179C965.022 211.192 965.512 211.367 965.979 211.702C966.45 212.022 966.865 212.491 967.224 213.109L969.857 217.63L968.177 218.592L965.544 214.071ZM979.24 212.554C978.472 212.994 977.713 213.207 976.965 213.193C976.22 213.165 975.535 212.942 974.91 212.526C974.285 212.109 973.755 211.528 973.32 210.781C972.89 210.044 972.65 209.303 972.599 208.558C972.557 207.807 972.711 207.117 973.06 206.487C973.403 205.848 973.941 205.319 974.672 204.901C975.366 204.503 976.066 204.306 976.771 204.308C977.479 204.295 978.146 204.485 978.769 204.878C979.397 205.256 979.923 205.81 980.347 206.538L980.749 207.229L974.667 210.71L973.991 209.549L978.393 207.029C978.2 206.698 977.948 206.436 977.639 206.244C977.33 206.052 976.991 205.958 976.622 205.96C976.248 205.953 975.875 206.055 975.505 206.267C975.135 206.479 974.852 206.758 974.658 207.102C974.464 207.447 974.386 207.854 974.425 208.323C974.464 208.793 974.642 209.299 974.958 209.843C975.254 210.35 975.585 210.75 975.954 211.043C976.316 211.327 976.708 211.491 977.127 211.533C977.551 211.561 977.985 211.448 978.429 211.193C978.874 210.939 979.199 210.63 979.407 210.265C979.609 209.891 979.681 209.518 979.625 209.145L981.305 208.183C981.477 208.564 981.525 209.028 981.449 209.575C981.377 210.108 981.159 210.645 980.794 211.185C980.425 211.716 979.907 212.173 979.24 212.554ZM979.617 202.365L981.213 201.451L981.962 202.737C981.963 202.294 982.023 201.898 982.14 201.548C982.252 201.189 982.44 200.866 982.705 200.579C982.965 200.283 983.312 200.01 983.747 199.761L984.689 201.379L984.425 201.53C983.963 201.795 983.617 202.134 983.389 202.548C983.164 202.946 983.065 203.39 983.09 203.88C983.125 204.363 983.288 204.854 983.578 205.352L985.51 208.67L983.844 209.624L979.617 202.365Z" fill="black"/>
<path d="M474.697 184.076C473.641 184.076 472.772 183.873 472.089 183.468C471.407 183.052 470.911 182.503 470.601 181.82C470.292 181.127 470.137 180.348 470.137 179.484V171.66H471.705V179.404C471.705 179.98 471.796 180.508 471.977 180.988C472.169 181.457 472.489 181.841 472.937 182.14C473.385 182.439 473.972 182.588 474.697 182.588C475.764 182.588 476.532 182.284 477.001 181.676C477.471 181.057 477.705 180.3 477.705 179.404V171.66H479.273V179.484C479.273 180.359 479.119 181.143 478.809 181.836C478.5 182.519 478.004 183.063 477.321 183.468C476.639 183.873 475.764 184.076 474.697 184.076ZM481.007 175.42H482.495V187.66H481.007V175.42ZM485.279 184.076C484.618 184.076 484.004 183.937 483.439 183.66C482.884 183.372 482.5 182.977 482.287 182.476H482.207V176.636H482.335C482.623 176.135 483.023 175.761 483.535 175.516C484.058 175.271 484.628 175.148 485.247 175.148C486.004 175.148 486.671 175.335 487.247 175.708C487.823 176.081 488.271 176.604 488.591 177.276C488.911 177.948 489.071 178.727 489.071 179.612C489.071 180.497 488.911 181.281 488.591 181.964C488.271 182.636 487.823 183.159 487.247 183.532C486.671 183.895 486.015 184.076 485.279 184.076ZM484.991 182.748C485.78 182.748 486.394 182.465 486.831 181.9C487.279 181.335 487.503 180.572 487.503 179.612C487.503 178.983 487.402 178.433 487.199 177.964C486.996 177.495 486.703 177.132 486.319 176.876C485.946 176.609 485.498 176.476 484.975 176.476C484.218 176.476 483.615 176.748 483.167 177.292C482.719 177.836 482.495 178.609 482.495 179.612C482.495 180.625 482.719 181.404 483.167 181.948C483.626 182.481 484.234 182.748 484.991 182.748ZM490.16 171.66H491.648V183.82H490.16V171.66ZM496.77 184.076C495.97 184.076 495.26 183.884 494.642 183.5C494.034 183.105 493.559 182.572 493.218 181.9C492.876 181.217 492.706 180.455 492.706 179.612C492.706 178.759 492.871 177.996 493.202 177.324C493.543 176.652 494.018 176.124 494.626 175.74C495.244 175.356 495.959 175.164 496.77 175.164C497.58 175.164 498.29 175.356 498.898 175.74C499.516 176.113 499.991 176.641 500.322 177.324C500.652 177.996 500.818 178.759 500.818 179.612C500.818 180.455 500.647 181.217 500.306 181.9C499.975 182.572 499.5 183.105 498.882 183.5C498.274 183.884 497.57 184.076 496.77 184.076ZM496.754 182.748C497.266 182.748 497.708 182.615 498.082 182.348C498.466 182.071 498.754 181.697 498.946 181.228C499.148 180.759 499.25 180.22 499.25 179.612C499.25 179.004 499.148 178.471 498.946 178.012C498.754 177.543 498.466 177.175 498.082 176.908C497.708 176.631 497.266 176.492 496.754 176.492C496.252 176.492 495.81 176.631 495.426 176.908C495.052 177.175 494.764 177.543 494.562 178.012C494.37 178.471 494.274 179.004 494.274 179.612C494.274 180.22 494.37 180.759 494.562 181.228C494.764 181.697 495.052 182.071 495.426 182.348C495.81 182.615 496.252 182.748 496.754 182.748ZM504.288 183.996C503.691 183.996 503.163 183.905 502.704 183.724C502.256 183.532 501.899 183.255 501.632 182.892C501.376 182.519 501.248 182.065 501.248 181.532C501.248 180.796 501.494 180.22 501.984 179.804C502.486 179.377 503.131 179.089 503.92 178.94C504.72 178.78 505.638 178.695 506.672 178.684H507.392L507.408 179.788H506.608C505.712 179.788 504.987 179.852 504.432 179.98C503.878 180.097 503.467 180.273 503.2 180.508C502.944 180.743 502.816 181.047 502.816 181.42C502.816 181.708 502.88 181.953 503.008 182.156C503.147 182.348 503.344 182.497 503.6 182.604C503.867 182.711 504.182 182.764 504.544 182.764C505.014 182.764 505.451 182.679 505.856 182.508C506.262 182.337 506.576 182.108 506.8 181.82C507.035 181.532 507.152 181.217 507.152 180.876V178.108C507.152 177.756 507.072 177.463 506.912 177.228C506.763 176.993 506.539 176.812 506.24 176.684C505.942 176.556 505.59 176.492 505.184 176.492C504.523 176.492 504.016 176.641 503.664 176.94C503.323 177.228 503.126 177.585 503.072 178.012H501.584C501.638 177.212 501.963 176.54 502.56 175.996C503.168 175.441 504.038 175.164 505.168 175.164C505.904 175.164 506.528 175.281 507.04 175.516C507.563 175.751 507.958 176.092 508.224 176.54C508.502 176.988 508.64 177.532 508.64 178.172V181.692C508.64 182.065 508.699 182.321 508.816 182.46C508.944 182.588 509.168 182.652 509.488 182.652V183.82H508.704C508.331 183.82 508.011 183.724 507.744 183.532C507.488 183.34 507.334 183.095 507.28 182.796V182.764C507.024 183.127 506.635 183.425 506.112 183.66C505.59 183.884 504.982 183.996 504.288 183.996ZM516.512 182.46L516.432 180.172V171.66H517.92V183.82H516.512V182.46ZM513.648 175.148C514.299 175.148 514.907 175.292 515.472 175.58C516.037 175.857 516.421 176.247 516.624 176.748H516.704V182.588H516.576C516.299 183.089 515.899 183.463 515.376 183.708C514.853 183.953 514.283 184.076 513.664 184.076C512.917 184.076 512.256 183.889 511.68 183.516C511.104 183.143 510.656 182.62 510.336 181.948C510.016 181.276 509.856 180.497 509.856 179.612C509.856 178.727 510.016 177.948 510.336 177.276C510.656 176.593 511.104 176.071 511.68 175.708C512.256 175.335 512.912 175.148 513.648 175.148ZM513.92 176.476C513.141 176.476 512.528 176.759 512.08 177.324C511.643 177.889 511.424 178.652 511.424 179.612C511.424 180.241 511.52 180.791 511.712 181.26C511.915 181.729 512.208 182.097 512.592 182.364C512.976 182.62 513.424 182.748 513.936 182.748C514.693 182.748 515.296 182.476 515.744 181.932C516.203 181.388 516.432 180.615 516.432 179.612C516.432 178.599 516.203 177.825 515.744 177.292C515.285 176.748 514.677 176.476 513.92 176.476ZM528.458 184.076C527.338 184.076 526.341 183.815 525.466 183.292C524.602 182.769 523.93 182.033 523.45 181.084C522.981 180.124 522.746 179.02 522.746 177.772C522.746 176.524 522.986 175.42 523.466 174.46C523.946 173.489 524.618 172.737 525.482 172.204C526.357 171.671 527.359 171.404 528.49 171.404C529.461 171.404 530.335 171.596 531.114 171.98C531.893 172.364 532.527 172.908 533.018 173.612C533.509 174.305 533.818 175.105 533.946 176.012H532.314C532.207 175.393 531.973 174.849 531.61 174.38C531.247 173.9 530.794 173.532 530.25 173.276C529.706 173.02 529.098 172.892 528.426 172.892C527.626 172.892 526.917 173.095 526.298 173.5C525.69 173.895 525.221 174.46 524.89 175.196C524.559 175.932 524.394 176.78 524.394 177.74C524.394 178.7 524.559 179.548 524.89 180.284C525.231 181.02 525.706 181.591 526.314 181.996C526.933 182.391 527.647 182.588 528.458 182.588C529.13 182.588 529.733 182.46 530.266 182.204C530.81 181.937 531.258 181.569 531.61 181.1C531.973 180.62 532.207 180.071 532.314 179.452H533.946C533.818 180.369 533.503 181.18 533.002 181.884C532.511 182.577 531.871 183.116 531.082 183.5C530.303 183.884 529.429 184.076 528.458 184.076ZM538.577 171.66H540.273L544.865 183.82H543.153L539.425 173.596L535.713 183.82H534.001L538.577 171.66ZM536.801 178.796H542.369L542.945 180.284H536.225L536.801 178.796ZM546.005 171.66H550.277C551.514 171.66 552.565 171.884 553.429 172.332C554.293 172.769 554.954 173.447 555.413 174.364C555.871 175.281 556.101 176.428 556.101 177.804C556.101 179.052 555.893 180.124 555.477 181.02C555.071 181.916 554.447 182.609 553.605 183.1C552.773 183.58 551.722 183.82 550.453 183.82H546.005V171.66ZM550.245 182.332C551.61 182.332 552.65 181.953 553.365 181.196C554.09 180.439 554.453 179.281 554.453 177.724C554.453 176.764 554.303 175.943 554.005 175.26C553.706 174.577 553.242 174.055 552.613 173.692C551.994 173.329 551.205 173.148 550.245 173.148H547.573V182.332H550.245Z" fill="black"/>
<path d="M829.69 184.076C828.527 184.076 827.503 183.815 826.618 183.292C825.732 182.759 825.044 182.012 824.554 181.052C824.074 180.092 823.834 178.988 823.834 177.74C823.834 176.492 824.074 175.388 824.554 174.428C825.044 173.468 825.732 172.727 826.618 172.204C827.514 171.671 828.538 171.404 829.69 171.404C830.852 171.404 831.871 171.671 832.746 172.204C833.631 172.727 834.314 173.468 834.794 174.428C835.284 175.388 835.53 176.492 835.53 177.74C835.53 178.988 835.284 180.092 834.794 181.052C834.314 182.012 833.631 182.759 832.746 183.292C831.871 183.815 830.852 184.076 829.69 184.076ZM829.674 182.588C830.516 182.588 831.252 182.385 831.882 181.98C832.511 181.564 833.002 180.993 833.354 180.268C833.706 179.543 833.882 178.7 833.882 177.74C833.882 176.78 833.706 175.937 833.354 175.212C833.002 174.487 832.511 173.921 831.882 173.516C831.252 173.1 830.516 172.892 829.674 172.892C828.842 172.892 828.106 173.1 827.466 173.516C826.836 173.921 826.346 174.487 825.994 175.212C825.652 175.937 825.482 176.78 825.482 177.74C825.482 178.7 825.652 179.543 825.994 180.268C826.346 180.993 826.836 181.564 827.466 181.98C828.106 182.385 828.842 182.588 829.674 182.588ZM836.932 171.66H838.42V183.82H836.932V171.66ZM841.204 184.076C840.543 184.076 839.929 183.937 839.364 183.66C838.809 183.372 838.425 182.977 838.212 182.476H838.132V176.636H838.26C838.548 176.135 838.948 175.761 839.46 175.516C839.983 175.271 840.553 175.148 841.172 175.148C841.929 175.148 842.596 175.335 843.172 175.708C843.748 176.081 844.196 176.604 844.516 177.276C844.836 177.948 844.996 178.727 844.996 179.612C844.996 180.497 844.836 181.281 844.516 181.964C844.196 182.636 843.748 183.159 843.172 183.532C842.596 183.895 841.94 184.076 841.204 184.076ZM840.916 182.748C841.705 182.748 842.319 182.465 842.756 181.9C843.204 181.335 843.428 180.572 843.428 179.612C843.428 178.983 843.327 178.433 843.124 177.964C842.921 177.495 842.628 177.132 842.244 176.876C841.871 176.609 841.423 176.476 840.9 176.476C840.153 176.476 839.551 176.748 839.092 177.292C838.644 177.836 838.42 178.609 838.42 179.612C838.42 180.625 838.644 181.404 839.092 181.948C839.551 182.481 840.159 182.748 840.916 182.748ZM845.253 187.772C845.072 187.772 844.896 187.761 844.725 187.74C844.544 187.719 844.384 187.697 844.245 187.676V186.348C844.384 186.38 844.56 186.396 844.773 186.396C845.221 186.396 845.547 186.305 845.749 186.124C845.963 185.943 846.069 185.671 846.069 185.308V175.42H847.557V185.228C847.557 186.06 847.376 186.689 847.013 187.116C846.661 187.553 846.075 187.772 845.253 187.772ZM846.069 171.66H847.557V173.452H846.069V171.66ZM852.695 184.076C851.841 184.076 851.111 183.884 850.503 183.5C849.895 183.105 849.431 182.572 849.111 181.9C848.801 181.228 848.647 180.46 848.647 179.596C848.647 178.732 848.807 177.964 849.127 177.292C849.447 176.62 849.905 176.097 850.503 175.724C851.1 175.351 851.799 175.164 852.599 175.164C853.356 175.164 854.028 175.335 854.615 175.676C855.201 176.017 855.66 176.503 855.991 177.132C856.321 177.761 856.487 178.492 856.487 179.324V180.14H849.639L849.655 178.94H854.983C854.983 178.481 854.887 178.071 854.695 177.708C854.503 177.335 854.225 177.041 853.863 176.828C853.511 176.604 853.1 176.492 852.631 176.492C852.193 176.492 851.783 176.604 851.399 176.828C851.025 177.041 850.721 177.383 850.487 177.852C850.252 178.321 850.135 178.908 850.135 179.612C850.135 180.263 850.231 180.823 850.423 181.292C850.625 181.761 850.919 182.124 851.303 182.38C851.687 182.625 852.145 182.748 852.679 182.748C853.255 182.748 853.74 182.625 854.135 182.38C854.54 182.135 854.823 181.804 854.983 181.388H856.487C856.433 181.804 856.247 182.22 855.927 182.636C855.617 183.041 855.185 183.383 854.631 183.66C854.076 183.937 853.431 184.076 852.695 184.076ZM861.035 184.076C860.235 184.076 859.531 183.889 858.923 183.516C858.315 183.143 857.84 182.62 857.499 181.948C857.168 181.276 857.003 180.513 857.003 179.66C857.003 178.785 857.168 178.007 857.499 177.324C857.84 176.641 858.315 176.108 858.923 175.724C859.531 175.34 860.24 175.148 861.051 175.148C861.744 175.148 862.373 175.292 862.939 175.58C863.504 175.868 863.952 176.257 864.283 176.748C864.624 177.228 864.816 177.767 864.859 178.364H863.323C863.248 178.001 863.109 177.676 862.907 177.388C862.715 177.1 862.459 176.876 862.139 176.716C861.829 176.556 861.477 176.476 861.083 176.476C860.293 176.476 859.675 176.764 859.227 177.34C858.789 177.916 858.571 178.695 858.571 179.676C858.571 180.305 858.667 180.849 858.859 181.308C859.051 181.767 859.333 182.124 859.707 182.38C860.08 182.625 860.523 182.748 861.035 182.748C861.611 182.748 862.101 182.599 862.507 182.3C862.923 182.001 863.195 181.591 863.323 181.068H864.859C864.795 181.644 864.587 182.161 864.235 182.62C863.893 183.079 863.44 183.436 862.875 183.692C862.32 183.948 861.707 184.076 861.035 184.076ZM869.251 183.868C868.27 183.868 867.566 183.676 867.139 183.292C866.713 182.897 866.499 182.295 866.499 181.484V176.748H864.915V175.42C865.449 175.42 865.833 175.383 866.067 175.308C866.302 175.223 866.446 175.095 866.499 174.924C866.563 174.743 866.595 174.444 866.595 174.028V173.26H867.987V175.42H870.355V176.748H867.987V181.1C867.987 181.623 868.105 181.985 868.339 182.188C868.574 182.391 868.953 182.492 869.475 182.492C869.859 182.492 870.142 182.487 870.323 182.476V183.82C870.131 183.831 869.945 183.841 869.763 183.852C869.582 183.863 869.411 183.868 869.251 183.868Z" fill="black"/>
<path d="M710.536 234.66H712.104V246.82H710.536V234.66ZM711.8 239.908H714.76C715.571 239.908 716.195 239.759 716.632 239.46C717.08 239.151 717.304 238.681 717.304 238.052C717.304 237.647 717.213 237.305 717.032 237.028C716.851 236.74 716.573 236.521 716.2 236.372C715.827 236.223 715.347 236.148 714.76 236.148H711.8V234.66H715.096C715.864 234.66 716.525 234.788 717.08 235.044C717.645 235.289 718.083 235.668 718.392 236.18C718.701 236.692 718.856 237.321 718.856 238.068C718.856 238.751 718.712 239.343 718.424 239.844C718.147 240.335 717.725 240.719 717.16 240.996C716.595 241.263 715.901 241.396 715.08 241.396H711.8V239.908ZM722.426 246.996C721.828 246.996 721.3 246.905 720.842 246.724C720.394 246.532 720.036 246.255 719.77 245.892C719.514 245.519 719.386 245.065 719.386 244.532C719.386 243.796 719.631 243.22 720.122 242.804C720.623 242.377 721.268 242.089 722.058 241.94C722.858 241.78 723.775 241.695 724.81 241.684H725.53L725.546 242.788H724.746C723.85 242.788 723.124 242.852 722.57 242.98C722.015 243.097 721.604 243.273 721.338 243.508C721.082 243.743 720.954 244.047 720.954 244.42C720.954 244.708 721.018 244.953 721.146 245.156C721.284 245.348 721.482 245.497 721.738 245.604C722.004 245.711 722.319 245.764 722.682 245.764C723.151 245.764 723.588 245.679 723.994 245.508C724.399 245.337 724.714 245.108 724.938 244.82C725.172 244.532 725.29 244.217 725.29 243.876V241.108C725.29 240.756 725.21 240.463 725.05 240.228C724.9 239.993 724.676 239.812 724.378 239.684C724.079 239.556 723.727 239.492 723.322 239.492C722.66 239.492 722.154 239.641 721.802 239.94C721.46 240.228 721.263 240.585 721.21 241.012H719.722C719.775 240.212 720.1 239.54 720.698 238.996C721.306 238.441 722.175 238.164 723.306 238.164C724.042 238.164 724.666 238.281 725.178 238.516C725.7 238.751 726.095 239.092 726.362 239.54C726.639 239.988 726.778 240.532 726.778 241.172V244.692C726.778 245.065 726.836 245.321 726.954 245.46C727.082 245.588 727.306 245.652 727.626 245.652V246.82H726.842C726.468 246.82 726.148 246.724 725.882 246.532C725.626 246.34 725.471 246.095 725.418 245.796V245.764C725.162 246.127 724.772 246.425 724.25 246.66C723.727 246.884 723.119 246.996 722.426 246.996ZM730.889 246.82L727.689 238.42H729.321L731.657 244.996L733.913 238.42H735.545L731.033 250.66H729.561L730.889 246.82Z" fill="black"/>
<path d="M324.784 239.588H328.112C328.752 239.588 329.259 239.439 329.632 239.14C330.016 238.831 330.208 238.415 330.208 237.892C330.208 237.295 330.011 236.857 329.616 236.58C329.221 236.292 328.64 236.148 327.872 236.148H324.848V234.66H327.792C328.667 234.66 329.403 234.788 330 235.044C330.608 235.289 331.067 235.657 331.376 236.148C331.696 236.628 331.856 237.215 331.856 237.908C331.856 238.879 331.52 239.647 330.848 240.212C330.176 240.767 329.243 241.044 328.048 241.044H324.784V239.588ZM323.536 234.66H325.104V246.82H323.536V234.66ZM324.736 240.804H326.688L332.368 246.82H330.368L324.736 240.804ZM336.482 247.076C335.682 247.076 334.973 246.884 334.354 246.5C333.746 246.105 333.271 245.572 332.93 244.9C332.589 244.217 332.418 243.455 332.418 242.612C332.418 241.759 332.583 240.996 332.914 240.324C333.255 239.652 333.73 239.124 334.338 238.74C334.957 238.356 335.671 238.164 336.482 238.164C337.293 238.164 338.002 238.356 338.61 238.74C339.229 239.113 339.703 239.641 340.034 240.324C340.365 240.996 340.53 241.759 340.53 242.612C340.53 243.455 340.359 244.217 340.018 244.9C339.687 245.572 339.213 246.105 338.594 246.5C337.986 246.884 337.282 247.076 336.482 247.076ZM336.466 245.748C336.978 245.748 337.421 245.615 337.794 245.348C338.178 245.071 338.466 244.697 338.658 244.228C338.861 243.759 338.962 243.22 338.962 242.612C338.962 242.004 338.861 241.471 338.658 241.012C338.466 240.543 338.178 240.175 337.794 239.908C337.421 239.631 336.978 239.492 336.466 239.492C335.965 239.492 335.522 239.631 335.138 239.908C334.765 240.175 334.477 240.543 334.274 241.012C334.082 241.471 333.986 242.004 333.986 242.612C333.986 243.22 334.082 243.759 334.274 244.228C334.477 244.697 334.765 245.071 335.138 245.348C335.522 245.615 335.965 245.748 336.466 245.748ZM343.671 246.82L340.471 238.42H342.103L344.439 244.996L346.695 238.42H348.327L343.815 250.66H342.343L343.671 246.82ZM351.513 246.996C350.916 246.996 350.388 246.905 349.929 246.724C349.481 246.532 349.124 246.255 348.857 245.892C348.601 245.519 348.473 245.065 348.473 244.532C348.473 243.796 348.719 243.22 349.209 242.804C349.711 242.377 350.356 242.089 351.145 241.94C351.945 241.78 352.863 241.695 353.897 241.684H354.617L354.633 242.788H353.833C352.937 242.788 352.212 242.852 351.657 242.98C351.103 243.097 350.692 243.273 350.425 243.508C350.169 243.743 350.041 244.047 350.041 244.42C350.041 244.708 350.105 244.953 350.233 245.156C350.372 245.348 350.569 245.497 350.825 245.604C351.092 245.711 351.407 245.764 351.769 245.764C352.239 245.764 352.676 245.679 353.081 245.508C353.487 245.337 353.801 245.108 354.025 244.82C354.26 244.532 354.377 244.217 354.377 243.876V241.108C354.377 240.756 354.297 240.463 354.137 240.228C353.988 239.993 353.764 239.812 353.465 239.684C353.167 239.556 352.815 239.492 352.409 239.492C351.748 239.492 351.241 239.641 350.889 239.94C350.548 240.228 350.351 240.585 350.297 241.012H348.809C348.863 240.212 349.188 239.54 349.785 238.996C350.393 238.441 351.263 238.164 352.393 238.164C353.129 238.164 353.753 238.281 354.265 238.516C354.788 238.751 355.183 239.092 355.449 239.54C355.727 239.988 355.865 240.532 355.865 241.172V244.692C355.865 245.065 355.924 245.321 356.041 245.46C356.169 245.588 356.393 245.652 356.713 245.652V246.82H355.929C355.556 246.82 355.236 246.724 354.969 246.532C354.713 246.34 354.559 246.095 354.505 245.796V245.764C354.249 246.127 353.86 246.425 353.337 246.66C352.815 246.884 352.207 246.996 351.513 246.996ZM357.673 234.66H359.161V246.82H357.673V234.66ZM364.298 246.868C363.317 246.868 362.613 246.676 362.186 246.292C361.759 245.897 361.546 245.295 361.546 244.484V239.748H359.962V238.42C360.495 238.42 360.879 238.383 361.114 238.308C361.349 238.223 361.493 238.095 361.546 237.924C361.61 237.743 361.642 237.444 361.642 237.028V236.26H363.034V238.42H365.402V239.748H363.034V244.1C363.034 244.623 363.151 244.985 363.386 245.188C363.621 245.391 363.999 245.492 364.522 245.492C364.906 245.492 365.189 245.487 365.37 245.476V246.82C365.178 246.831 364.991 246.841 364.81 246.852C364.629 246.863 364.458 246.868 364.298 246.868ZM366.447 238.42H367.935V246.82H366.447V238.42ZM366.447 234.66H367.935V236.452H366.447V234.66ZM373.042 247.076C372.188 247.076 371.458 246.884 370.85 246.5C370.242 246.105 369.778 245.572 369.458 244.9C369.148 244.228 368.994 243.46 368.994 242.596C368.994 241.732 369.154 240.964 369.474 240.292C369.794 239.62 370.252 239.097 370.85 238.724C371.447 238.351 372.146 238.164 372.946 238.164C373.703 238.164 374.375 238.335 374.962 238.676C375.548 239.017 376.007 239.503 376.338 240.132C376.668 240.761 376.834 241.492 376.834 242.324V243.14H369.986L370.002 241.94H375.33C375.33 241.481 375.234 241.071 375.042 240.708C374.85 240.335 374.572 240.041 374.21 239.828C373.858 239.604 373.447 239.492 372.978 239.492C372.54 239.492 372.13 239.604 371.746 239.828C371.372 240.041 371.068 240.383 370.834 240.852C370.599 241.321 370.482 241.908 370.482 242.612C370.482 243.263 370.578 243.823 370.77 244.292C370.972 244.761 371.266 245.124 371.65 245.38C372.034 245.625 372.492 245.748 373.026 245.748C373.602 245.748 374.087 245.625 374.482 245.38C374.887 245.135 375.17 244.804 375.33 244.388H376.834C376.78 244.804 376.594 245.22 376.274 245.636C375.964 246.041 375.532 246.383 374.978 246.66C374.423 246.937 373.778 247.076 373.042 247.076ZM380.949 247.076C380.203 247.076 379.552 246.953 378.997 246.708C378.453 246.452 378.037 246.1 377.749 245.652C377.461 245.193 377.301 244.665 377.269 244.068H378.709C378.837 244.665 379.072 245.097 379.413 245.364C379.765 245.62 380.277 245.748 380.949 245.748C381.568 245.748 382.053 245.652 382.405 245.46C382.757 245.268 382.933 244.996 382.933 244.644C382.933 244.345 382.821 244.105 382.597 243.924C382.384 243.743 382.069 243.588 381.653 243.46L379.509 242.852C378.891 242.671 378.416 242.399 378.085 242.036C377.765 241.673 377.605 241.215 377.605 240.66C377.605 240.169 377.733 239.732 377.989 239.348C378.256 238.964 378.629 238.671 379.109 238.468C379.589 238.265 380.144 238.164 380.773 238.164C381.445 238.164 382.032 238.281 382.533 238.516C383.045 238.74 383.445 239.065 383.733 239.492C384.021 239.908 384.181 240.404 384.213 240.98H382.709C382.624 240.489 382.416 240.121 382.085 239.876C381.755 239.62 381.307 239.492 380.741 239.492C380.411 239.492 380.117 239.54 379.861 239.636C379.605 239.721 379.408 239.844 379.269 240.004C379.141 240.164 379.077 240.361 379.077 240.596C379.077 240.841 379.163 241.039 379.333 241.188C379.515 241.337 379.819 241.476 380.245 241.604L382.389 242.212C383.029 242.393 383.531 242.671 383.893 243.044C384.256 243.417 384.437 243.897 384.437 244.484C384.437 245.007 384.288 245.465 383.989 245.86C383.701 246.244 383.291 246.543 382.757 246.756C382.235 246.969 381.632 247.076 380.949 247.076Z" fill="black"/>
<path d="M557.707 191.527C558.098 191.137 558.098 190.503 557.707 190.113L551.343 183.749C550.953 183.358 550.319 183.358 549.929 183.749C549.538 184.139 549.538 184.773 549.929 185.163L555.586 190.82L549.929 196.477C549.538 196.867 549.538 197.501 549.929 197.891C550.319 198.282 550.953 198.282 551.343 197.891L557.707 191.527ZM411 190.82V191.82H557V190.82V189.82H411V190.82Z" fill="url(#paint0_linear_213_3867)"/>
<path d="M708.293 255.113C707.902 255.503 707.902 256.137 708.293 256.527L714.657 262.891C715.047 263.282 715.681 263.282 716.071 262.891C716.462 262.501 716.462 261.867 716.071 261.477L710.414 255.82L716.071 250.163C716.462 249.773 716.462 249.139 716.071 248.749C715.681 248.358 715.047 248.358 714.657 248.749L708.293 255.113ZM791 255.82V254.82H709V255.82V256.82H791V255.82Z" fill="url(#paint1_linear_213_3867)"/>
<path d="M871.707 195.527C872.098 195.137 872.098 194.503 871.707 194.113L865.343 187.749C864.953 187.358 864.319 187.358 863.929 187.749C863.538 188.139 863.538 188.773 863.929 189.163L869.586 194.82L863.929 200.477C863.538 200.867 863.538 201.501 863.929 201.891C864.319 202.282 864.953 202.282 865.343 201.891L871.707 195.527ZM769 194.82L769 195.82L871 195.82L871 194.82L871 193.82L769 193.82L769 194.82Z" fill="url(#paint2_linear_213_3867)"/>
<path d="M321.293 255.113C320.902 255.503 320.902 256.137 321.293 256.527L327.657 262.891C328.047 263.282 328.681 263.282 329.071 262.891C329.462 262.501 329.462 261.867 329.071 261.477L323.414 255.82L329.071 250.163C329.462 249.773 329.462 249.139 329.071 248.749C328.681 248.358 328.047 248.358 327.657 248.749L321.293 255.113ZM433 255.82V254.82H322V255.82V256.82H433V255.82Z" fill="url(#paint3_linear_213_3867)"/>
<defs>
<filter id="filter0_d_213_3867" x="194.5" y="-1.52588e-05" width="246.796" height="246.805" filterUnits="userSpaceOnUse" color-interpolation-filters="sRGB">
<feFlood flood-opacity="0" result="BackgroundImageFix"/>
<feColorMatrix in="SourceAlpha" type="matrix" values="0 0 0 0 0 0 0 0 0 0 0 0 0 0 0 0 0 0 127 0" result="hardAlpha"/>
<feMorphology radius="18" operator="dilate" in="SourceAlpha" result="effect1_dropShadow_213_3867"/>
<feOffset/>
<feGaussianBlur stdDeviation="43.4"/>
<feComposite in2="hardAlpha" operator="out"/>
<feColorMatrix type="matrix" values="0 0 0 0 1 0 0 0 0 1 0 0 0 0 1 0 0 0 0.25 0"/>
<feBlend mode="normal" in2="BackgroundImageFix" result="effect1_dropShadow_213_3867"/>
<feBlend mode="normal" in="SourceGraphic" in2="effect1_dropShadow_213_3867" result="shape"/>
</filter>
<filter id="filter1_d_213_3867" x="864.068" y="13.6132" width="246.796" height="246.805" filterUnits="userSpaceOnUse" color-interpolation-filters="sRGB">
<feFlood flood-opacity="0" result="BackgroundImageFix"/>
<feColorMatrix in="SourceAlpha" type="matrix" values="0 0 0 0 0 0 0 0 0 0 0 0 0 0 0 0 0 0 127 0" result="hardAlpha"/>
<feMorphology radius="18" operator="dilate" in="SourceAlpha" result="effect1_dropShadow_213_3867"/>
<feOffset/>
<feGaussianBlur stdDeviation="43.4"/>
<feComposite in2="hardAlpha" operator="out"/>
<feColorMatrix type="matrix" values="0 0 0 0 1 0 0 0 0 1 0 0 0 0 1 0 0 0 0.25 0"/>
<feBlend mode="normal" in2="BackgroundImageFix" result="effect1_dropShadow_213_3867"/>
<feBlend mode="normal" in="SourceGraphic" in2="effect1_dropShadow_213_3867" result="shape"/>
</filter>
<filter id="filter2_d_213_3867" x="207.438" y="30.9988" width="264.417" height="253.107" filterUnits="userSpaceOnUse" color-interpolation-filters="sRGB">
<feFlood flood-opacity="0" result="BackgroundImageFix"/>
<feColorMatrix in="SourceAlpha" type="matrix" values="0 0 0 0 0 0 0 0 0 0 0 0 0 0 0 0 0 0 127 0" result="hardAlpha"/>
<feMorphology radius="18" operator="dilate" in="SourceAlpha" result="effect1_dropShadow_213_3867"/>
<feOffset/>
<feGaussianBlur stdDeviation="43.4"/>
<feComposite in2="hardAlpha" operator="out"/>
<feColorMatrix type="matrix" values="0 0 0 0 1 0 0 0 0 1 0 0 0 0 1 0 0 0 0.25 0"/>
<feBlend mode="normal" in2="BackgroundImageFix" result="effect1_dropShadow_213_3867"/>
<feBlend mode="normal" in="SourceGraphic" in2="effect1_dropShadow_213_3867" result="shape"/>
</filter>
<filter id="filter3_d_213_3867" x="877.008" y="44.612" width="264.417" height="253.107" filterUnits="userSpaceOnUse" color-interpolation-filters="sRGB">
<feFlood flood-opacity="0" result="BackgroundImageFix"/>
<feColorMatrix in="SourceAlpha" type="matrix" values="0 0 0 0 0 0 0 0 0 0 0 0 0 0 0 0 0 0 127 0" result="hardAlpha"/>
<feMorphology radius="18" operator="dilate" in="SourceAlpha" result="effect1_dropShadow_213_3867"/>
<feOffset/>
<feGaussianBlur stdDeviation="43.4"/>
<feComposite in2="hardAlpha" operator="out"/>
<feColorMatrix type="matrix" values="0 0 0 0 1 0 0 0 0 1 0 0 0 0 1 0 0 0 0.25 0"/>
<feBlend mode="normal" in2="BackgroundImageFix" result="effect1_dropShadow_213_3867"/>
<feBlend mode="normal" in="SourceGraphic" in2="effect1_dropShadow_213_3867" result="shape"/>
</filter>
<linearGradient id="paint0_linear_213_3867" x1="557" y1="191.32" x2="411" y2="191.32" gradientUnits="userSpaceOnUse">
<stop stop-color="#B9C1F1"/>
<stop offset="1" stop-color="#507CC0"/>
</linearGradient>
<linearGradient id="paint1_linear_213_3867" x1="709" y1="255.32" x2="791" y2="255.32" gradientUnits="userSpaceOnUse">
<stop stop-color="#B9C1F1"/>
<stop offset="1" stop-color="#507CC0"/>
</linearGradient>
<linearGradient id="paint2_linear_213_3867" x1="871" y1="195.32" x2="769" y2="195.32" gradientUnits="userSpaceOnUse">
<stop stop-color="#B9C1F1"/>
<stop offset="1" stop-color="#507CC0"/>
</linearGradient>
<linearGradient id="paint3_linear_213_3867" x1="322" y1="255.32" x2="433" y2="255.32" gradientUnits="userSpaceOnUse">
<stop stop-color="#B9C1F1"/>
<stop offset="1" stop-color="#507CC0"/>
</linearGradient>
</defs>
</svg>
