<svg fill="none" height="386" viewBox="0 0 1232 386" width="1232" xmlns="http://www.w3.org/2000/svg" xmlns:xlink="http://www.w3.org/1999/xlink"><filter id="a" color-interpolation-filters="sRGB" filterUnits="userSpaceOnUse" height="246.805" width="246.796" x="194.5" y="-.000015"><feFlood flood-opacity="0" result="BackgroundImageFix"/><feColorMatrix in="SourceAlpha" result="hardAlpha" type="matrix" values="0 0 0 0 0 0 0 0 0 0 0 0 0 0 0 0 0 0 127 0"/><feMorphology in="SourceAlpha" operator="dilate" radius="18" result="effect1_dropShadow_213_3867"/><feOffset/><feGaussianBlur stdDeviation="43.4"/><feComposite in2="hardAlpha" operator="out"/><feColorMatrix type="matrix" values="0 0 0 0 1 0 0 0 0 1 0 0 0 0 1 0 0 0 0.25 0"/><feBlend in2="BackgroundImageFix" mode="normal" result="effect1_dropShadow_213_3867"/><feBlend in="SourceGraphic" in2="effect1_dropShadow_213_3867" mode="normal" result="shape"/></filter><filter id="b" color-interpolation-filters="sRGB" filterUnits="userSpaceOnUse" height="246.805" width="246.796" x="864.068" y="13.6132"><feFlood flood-opacity="0" result="BackgroundImageFix"/><feColorMatrix in="SourceAlpha" result="hardAlpha" type="matrix" values="0 0 0 0 0 0 0 0 0 0 0 0 0 0 0 0 0 0 127 0"/><feMorphology in="SourceAlpha" operator="dilate" radius="18" result="effect1_dropShadow_213_3867"/><feOffset/><feGaussianBlur stdDeviation="43.4"/><feComposite in2="hardAlpha" operator="out"/><feColorMatrix type="matrix" values="0 0 0 0 1 0 0 0 0 1 0 0 0 0 1 0 0 0 0.25 0"/><feBlend in2="BackgroundImageFix" mode="normal" result="effect1_dropShadow_213_3867"/><feBlend in="SourceGraphic" in2="effect1_dropShadow_213_3867" mode="normal" result="shape"/></filter><filter id="c" color-interpolation-filters="sRGB" filterUnits="userSpaceOnUse" height="253.107" width="264.417" x="207.438" y="30.9988"><feFlood flood-opacity="0" result="BackgroundImageFix"/><feColorMatrix in="SourceAlpha" result="hardAlpha" type="matrix" values="0 0 0 0 0 0 0 0 0 0 0 0 0 0 0 0 0 0 127 0"/><feMorphology in="SourceAlpha" operator="dilate" radius="18" result="effect1_dropShadow_213_3867"/><feOffset/><feGaussianBlur stdDeviation="43.4"/><feComposite in2="hardAlpha" operator="out"/><feColorMatrix type="matrix" values="0 0 0 0 1 0 0 0 0 1 0 0 0 0 1 0 0 0 0.25 0"/><feBlend in2="BackgroundImageFix" mode="normal" result="effect1_dropShadow_213_3867"/><feBlend in="SourceGraphic" in2="effect1_dropShadow_213_3867" mode="normal" result="shape"/></filter><filter id="d" color-interpolation-filters="sRGB" filterUnits="userSpaceOnUse" height="253.107" width="264.417" x="877.008" y="44.612"><feFlood flood-opacity="0" result="BackgroundImageFix"/><feColorMatrix in="SourceAlpha" result="hardAlpha" type="matrix" values="0 0 0 0 0 0 0 0 0 0 0 0 0 0 0 0 0 0 127 0"/><feMorphology in="SourceAlpha" operator="dilate" radius="18" result="effect1_dropShadow_213_3867"/><feOffset/><feGaussianBlur stdDeviation="43.4"/><feComposite in2="hardAlpha" operator="out"/><feColorMatrix type="matrix" values="0 0 0 0 1 0 0 0 0 1 0 0 0 0 1 0 0 0 0.25 0"/><feBlend in2="BackgroundImageFix" mode="normal" result="effect1_dropShadow_213_3867"/><feBlend in="SourceGraphic" in2="effect1_dropShadow_213_3867" mode="normal" result="shape"/></filter><linearGradient id="e"><stop offset="0" stop-color="#b9c1f1"/><stop offset="1" stop-color="#507cc0"/></linearGradient><linearGradient id="f" gradientUnits="userSpaceOnUse" x1="557" x2="411" xlink:href="#e" y1="191.32" y2="191.32"/><linearGradient id="g" gradientUnits="userSpaceOnUse" x1="709" x2="791" xlink:href="#e" y1="255.32" y2="255.32"/><linearGradient id="h" gradientUnits="userSpaceOnUse" x1="871" x2="769" xlink:href="#e" y1="195.32" y2="195.32"/><linearGradient id="i" gradientUnits="userSpaceOnUse" x1="322" x2="433" xlink:href="#e" y1="255.32" y2="255.32"/><mask id="j" fill="#fff"><path d="m316.098 179.306c-3.858-6.624-4.873-14.514-2.822-21.933 2.05-7.419 6.998-13.76 13.756-17.628 6.757-3.868 14.77-4.946 22.276-2.997s13.89 6.765 17.748 13.39l-5.103 2.921c-3.085-5.298-8.191-9.15-14.193-10.708-6.003-1.559-12.411-.697-17.815 2.397-5.404 3.093-9.361 8.164-11.001 14.097s-.828 12.242 2.257 17.54z" fill="#fff"/></mask><mask id="k" fill="#fff"><path d="m985.668 192.919c-3.858-6.624-4.873-14.514-2.823-21.933 2.051-7.419 6.999-13.76 13.757-17.628s14.768-4.946 22.278-2.997c7.5 1.949 13.89 6.766 17.75 13.39l-5.11 2.921c-3.08-5.298-8.19-9.149-14.19-10.708s-12.41-.697-17.815 2.397c-5.404 3.093-9.361 8.164-11.001 14.097s-.828 12.242 2.257 17.54z" fill="#fff"/></mask><g filter="url(#a)"><path d="m308.602 107.441c-8.731 4.998-11.654 16.196-6.519 25.014 5.136 8.818 16.378 11.907 25.11 6.91 8.731-4.998 11.655-16.196 6.52-25.014-5.136-8.819-16.379-11.908-25.111-6.91z" shape-rendering="crispEdges" stroke="#000" stroke-width=".5"/></g><g filter="url(#b)"><path d="m978.17 121.054c-8.731 4.998-11.653 16.196-6.518 25.014s16.378 11.907 25.109 6.91c8.729-4.998 11.659-16.196 6.519-25.014-5.134-8.818-16.378-11.908-25.11-6.91z" shape-rendering="crispEdges" stroke="#000" stroke-width=".5"/></g><g filter="url(#c)"><path d="m316.098 179.306c-3.858-6.624-4.873-14.514-2.822-21.933 2.05-7.419 6.998-13.76 13.756-17.628 6.757-3.868 14.77-4.946 22.276-2.997s13.89 6.765 17.748 13.39l-5.103 2.921c-3.085-5.298-8.191-9.15-14.193-10.708-6.003-1.559-12.411-.697-17.815 2.397-5.404 3.093-9.361 8.164-11.001 14.097s-.828 12.242 2.257 17.54z" mask="url(#j)" shape-rendering="crispEdges" stroke="#000"/></g><g filter="url(#d)"><path d="m985.668 192.919c-3.858-6.624-4.873-14.514-2.823-21.933 2.051-7.419 6.999-13.76 13.757-17.628s14.768-4.946 22.278-2.997c7.5 1.949 13.89 6.766 17.75 13.39l-5.11 2.921c-3.08-5.298-8.19-9.149-14.19-10.708s-12.41-.697-17.815 2.397c-5.404 3.093-9.361 8.164-11.001 14.097s-.828 12.242 2.257 17.54z" mask="url(#k)" shape-rendering="crispEdges" stroke="#000"/></g><rect fill="#f1f1f1" height="38.3293" rx="19.1647" stroke="#c3c3c3" stroke-width=".5" transform="matrix(.86788 -.496774 .503233 .864151 422.359 306.093)" width="443.222" x=".342778" y=".091844"/><rect fill="#f1f1f1" height="38.3293" rx="19.1647" stroke="#c3c3c3" stroke-width=".5" transform="matrix(.86788 -.496774 .503233 .864151 169.999 248.818)" width="233.712" x=".342778" y=".091844"/><rect fill="#f1f1f1" height="38.3293" rx="19.1647" stroke="#c3c3c3" stroke-width=".5" transform="matrix(.86788 -.496774 .503233 .864151 839.568 262.431)" width="233.712" x=".342778" y=".091844"/><g fill="#000"><path d="m596.222 236.644c-.676.387-1.321.615-1.935.684s-1.168-.014-1.662-.247c-.484-.239-.886-.611-1.205-1.117l1.597-.914c.35.39.716.604 1.097.644s.826-.086 1.335-.377c.463-.265.784-.541.963-.827.182-.302.201-.577.056-.826-.129-.221-.317-.353-.564-.396s-.56-.017-.937.076l-2.067.52c-.656.166-1.231.175-1.724.028-.49-.163-.882-.497-1.178-1.004-.263-.452-.375-.91-.337-1.374.033-.474.216-.922.549-1.347.333-.424.796-.805 1.389-1.145.611-.349 1.195-.555 1.752-.615.566-.066 1.081.013 1.546.239.469.211.869.56 1.201 1.045l-1.624.93c-.265-.327-.581-.509-.948-.545-.371-.045-.77.054-1.196.298-.259.148-.467.31-.624.486-.148.17-.238.345-.27.523s.001.35.097.516c.108.184.266.296.474.337.218.035.516.006.894-.088l2.13-.537c.68-.168 1.274-.176 1.782-.024.503.142.904.471 1.205.987.268.461.375.941.32 1.44-.061.489-.274.961-.638 1.416-.365.454-.858.859-1.478 1.214zm7.336-4.42c-.87.498-1.606.686-2.208.563-.593-.127-1.096-.546-1.509-1.256l-2.223-3.816-1.263.723-.806-1.382c.417-.239.699-.443.847-.614.151-.185.209-.371.173-.56-.035-.188-.153-.453-.351-.794l-.395-.678 1.556-.89 1.087 1.867 1.985-1.137.805 1.383-1.985 1.136 1.964 3.374c.231.396.487.624.769.684.286.046.637-.051 1.054-.289.333-.191.587-.349.761-.473l.846 1.452c-.166.119-.343.239-.532.359-.18.115-.371.231-.575.348zm4.596-2.502c-.518.297-1.018.478-1.498.544-.485.057-.93-.008-1.335-.194-.41-.196-.746-.519-1.009-.971-.355-.608-.437-1.206-.249-1.793.193-.602.584-1.17 1.174-1.705.59-.534 1.348-1.066 2.274-1.596l.638-.366.626 1.043-.708.406c-.657.376-1.167.729-1.53 1.06-.363.33-.593.646-.689.947-.087.296-.048.587.119.872.123.212.282.367.475.466.187.089.407.117.659.083.247-.043.509-.144.787-.302.361-.207.656-.462.887-.766.23-.304.369-.617.416-.939.042-.331-.018-.635-.179-.912l-1.337-2.295c-.155-.267-.347-.458-.575-.574-.227-.115-.482-.16-.763-.134-.281.025-.575.126-.88.301-.5.286-.817.621-.951 1.005-.131.37-.121.726.03 1.07l-1.666.954c-.389-.773-.449-1.544-.18-2.312.272-.783.927-1.471 1.964-2.064.676-.387 1.311-.61 1.907-.668.59-.068 1.121.028 1.592.287.472.258.88.682 1.223 1.272l1.683 2.89c.15.258.301.411.453.46.161.043.366-.007.616-.15l.7 1.203-.999.572c-.324.186-.643.264-.956.234-.314-.03-.571-.153-.771-.37-.041.417-.235.847-.581 1.291-.337.439-.793.823-1.367 1.151zm1.595-10.794 1.667-.954 4.227 7.259-1.666.954zm6.591.062c-.21-.36-.447-.629-.712-.809-.271-.189-.555-.285-.852-.287s-.599.085-.904.26c-.519.296-.837.724-.956 1.284-.114.545.016 1.14.392 1.785l-1.484-2.229c.042-.565.213-1.056.513-1.473.309-.423.7-.77 1.172-1.04.546-.313 1.082-.472 1.609-.479.536-.012 1.036.126 1.5.414.458.278.851.698 1.179 1.261l2.762 4.742-1.667.954zm10.384-1.575-.939-1.453-4.606-7.909 1.667-.954 6.119 10.508-1.597.914zm-6.095-5.028c.547-.313 1.114-.484 1.701-.513.592-.044 1.101.077 1.526.362l.139-.08 3.027 5.199-.18.104c-.009.557-.169 1.067-.48 1.528-.308.446-.721.818-1.24 1.115-.648.371-1.316.538-2.003.502-.679-.042-1.326-.274-1.942-.696-.607-.427-1.133-1.023-1.578-1.788-.446-.765-.703-1.515-.773-2.249-.066-.749.06-1.423.377-2.023.312-.608.788-1.096 1.426-1.461zm1.227 1.215c-.602.345-.95.839-1.044 1.482-.09.63.079 1.313.509 2.05.279.48.604.859.976 1.137.373.279.766.435 1.18.468.409.024.813-.078 1.211-.306.574-.328.908-.802 1.004-1.423.105-.625-.068-1.325-.519-2.099-.446-.765-.965-1.254-1.558-1.468-.59-.228-1.176-.175-1.759.159zm11.013 1.973c-.518.297-1.017.478-1.498.544-.485.057-.93-.008-1.335-.194-.41-.196-.746-.519-1.009-.971-.355-.608-.437-1.206-.249-1.793.193-.602.584-1.17 1.174-1.705.59-.534 1.348-1.066 2.274-1.596l.638-.366.626 1.043-.708.406c-.657.376-1.167.729-1.53 1.06s-.593.646-.689.947c-.087.296-.047.587.119.872.123.212.282.368.475.466.187.089.407.117.659.083.247-.042.509-.143.787-.302.361-.207.656-.462.887-.766.23-.304.369-.617.416-.939.042-.331-.018-.635-.179-.911l-1.337-2.296c-.155-.267-.347-.458-.575-.574-.227-.115-.482-.16-.763-.134s-.575.126-.88.301c-.5.286-.817.621-.951 1.005-.131.37-.121.726.03 1.07l-1.666.954c-.389-.773-.449-1.544-.18-2.312.272-.783.927-1.471 1.964-2.064.676-.387 1.311-.61 1.907-.668.59-.067 1.121.028 1.593.287.471.258.879.683 1.222 1.273l1.683 2.889c.15.258.301.412.453.46.161.043.366-.007.616-.15l.701 1.203-1 .572c-.324.186-.643.264-.956.234-.314-.029-.571-.153-.771-.37-.041.417-.235.847-.581 1.291-.337.439-.793.823-1.367 1.151zm1.595-10.794 1.597-.914.749 1.286c.001-.443.061-.84.178-1.19.112-.359.3-.682.565-.968.26-.296.607-.569 1.042-.818l.942 1.618-.264.151c-.463.265-.808.604-1.037 1.017-.224.399-.323.843-.298 1.332.035.484.198.975.488 1.473l1.932 3.318-1.666.954zm13.829.288-.939-1.453-4.606-7.909 1.667-.954 6.119 10.508-1.597.914zm-6.095-5.028c.547-.313 1.114-.484 1.701-.513.592-.044 1.101.077 1.526.362l.139-.08 3.027 5.199-.18.103c-.009.558-.169 1.068-.481 1.529-.307.446-.72.818-1.239 1.115-.648.371-1.316.538-2.003.501-.679-.041-1.326-.273-1.942-.695-.607-.427-1.133-1.023-1.578-1.788-.446-.765-.703-1.515-.773-2.249-.066-.749.06-1.423.377-2.023.312-.609.788-1.096 1.426-1.461zm1.227 1.215c-.602.344-.95.839-1.044 1.482-.09.63.079 1.313.509 2.05.279.48.604.859.976 1.137.372.279.766.435 1.18.468.409.024.813-.078 1.211-.306.574-.328.908-.803 1.004-1.423.105-.625-.068-1.325-.519-2.099-.446-.765-.965-1.254-1.558-1.468-.59-.228-1.176-.175-1.759.159zm9.757-9.364 1.541-.882 4.227 7.259-1.541.882zm-1.184 4.549 7.29-4.173.846 1.452-7.291 4.173z"/><path d="m250.212 218.663 3.999-2.289c1.055-.604 2.066-.924 3.032-.961.975-.042 1.893.219 2.753.784.854.556 1.622 1.419 2.303 2.589.645 1.107 1.01 2.157 1.096 3.153.08.986-.129 1.899-.628 2.737-.504.83-1.308 1.56-2.409 2.19l-4.027 2.306zm9.012 6.733c1.074-.615 1.726-1.382 1.956-2.3.234-.933-.013-2.026-.743-3.28-.462-.793-.976-1.39-1.543-1.79-.557-.406-1.166-.605-1.827-.595-.657-.005-1.361.207-2.111.637l-2.055 1.176 4.268 7.328zm10.913-3.832c-.768.439-1.527.652-2.276.638-.744-.028-1.429-.25-2.054-.667-.626-.416-1.156-.998-1.59-1.744-.43-.738-.67-1.479-.721-2.224-.042-.75.111-1.44.461-2.07.343-.64.881-1.169 1.612-1.587.694-.398 1.394-.595 2.099-.593.708-.013 1.375.178 1.998.57.628.379 1.154.932 1.578 1.66l.402.691-6.082 3.482-.676-1.162 4.402-2.519c-.194-.332-.445-.594-.754-.786-.309-.191-.648-.286-1.017-.284-.374-.007-.747.096-1.117.308s-.653.49-.847.835c-.194.344-.272.751-.233 1.221.039.469.217.976.533 1.52.295.507.627.907.995 1.2.363.284.754.447 1.174.489.424.028.858-.085 1.302-.339.444-.255.77-.564.978-.929.202-.373.274-.747.217-1.12l1.681-.962c.172.381.22.845.144 1.393-.072.533-.291 1.069-.655 1.61-.369.531-.888.987-1.554 1.369zm7.509-4.299c-.675.387-1.32.615-1.934.683-.614.069-1.168-.013-1.662-.247-.485-.238-.887-.61-1.206-1.116l1.597-.914c.35.389.716.604 1.097.644s.826-.086 1.335-.377c.463-.265.784-.541.963-.828.182-.301.201-.576.056-.825-.129-.221-.317-.353-.564-.396s-.559-.018-.937.076l-2.067.519c-.656.167-1.231.176-1.724.028-.49-.162-.882-.496-1.177-1.003-.263-.452-.376-.91-.337-1.374.032-.474.215-.923.549-1.347.333-.424.795-.806 1.388-1.145.611-.35 1.195-.555 1.752-.616.566-.066 1.082.014 1.546.239.469.212.869.56 1.202 1.046l-1.625.93c-.265-.328-.581-.51-.947-.546-.372-.045-.771.054-1.197.298-.259.149-.467.311-.624.486-.147.171-.237.345-.269.523-.032.179 0 .351.097.516.107.185.265.297.474.337.217.036.515.006.893-.087l2.131-.538c.68-.167 1.273-.176 1.781-.024.503.143.905.472 1.205.988.269.461.375.941.32 1.439-.061.49-.273.962-.638 1.416-.365.455-.857.86-1.478 1.215zm-.033-9.954 1.666-.954 4.227 7.259-1.666.954zm-1.892-3.25 1.666-.953 1.006 1.728-1.666.954zm14.897 10.203c-1.037.594-1.97.857-2.798.791-.829-.067-1.553-.494-2.173-1.282l1.681-.962c.318.334.688.503 1.11.507s.878-.134 1.369-.415c.648-.371 1.031-.762 1.149-1.174.124-.402.024-.88-.298-1.433l-4.565-7.84 1.667-.954 4.565 7.84c.596 1.023.734 1.939.415 2.749-.313.818-1.02 1.543-2.122 2.173zm-6.967-10.724c.547-.312 1.114-.483 1.701-.512.592-.044 1.1.077 1.526.362l.139-.08 3.027 5.199-.181.103c-.008.558-.168 1.068-.48 1.529-.307.446-.721.818-1.239 1.115-.648.371-1.316.538-2.004.501-.678-.041-1.325-.273-1.941-.695-.607-.427-1.133-1.023-1.578-1.788-.446-.765-.703-1.515-.773-2.249-.066-.749.06-1.423.377-2.023.312-.609.788-1.096 1.426-1.462zm1.227 1.216c-.602.344-.95.838-1.044 1.482-.091.63.079 1.313.508 2.05.28.48.605.859.977 1.137.372.279.766.435 1.18.468.409.024.812-.078 1.21-.306.574-.328.909-.803 1.005-1.423.105-.625-.068-1.325-.519-2.099-.446-.765-.965-1.255-1.559-1.468-.589-.228-1.175-.175-1.758.159zm4.601-4.238 1.666-.954 4.227 7.259-1.667.954zm6.59.062c-.21-.359-.447-.629-.712-.809-.271-.189-.555-.285-.852-.287-.297-.001-.599.085-.904.26-.519.297-.837.725-.956 1.284-.114.545.016 1.14.392 1.786l-1.484-2.23c.042-.564.213-1.056.513-1.473.309-.423.7-.769 1.172-1.04.546-.312 1.082-.472 1.609-.479.536-.012 1.036.126 1.5.414.458.278.851.699 1.179 1.261l2.761 4.743-1.666.953zm9.089.936c-.768.44-1.527.653-2.275.639-.745-.028-1.43-.251-2.055-.667-.625-.417-1.155-.998-1.59-1.745-.43-.737-.67-1.478-.721-2.223-.042-.751.112-1.441.461-2.071.343-.639.881-1.168 1.612-1.586.695-.398 1.394-.596 2.099-.593.709-.013 1.375.177 1.998.57.628.378 1.154.932 1.578 1.66l.402.691-6.082 3.482-.676-1.162 4.402-2.52c-.193-.331-.445-.593-.754-.785s-.648-.286-1.017-.284c-.374-.007-.747.095-1.117.307s-.652.491-.847.835c-.194.345-.272.752-.233 1.222.039.469.217.976.533 1.519.296.507.627.907.996 1.201.362.283.754.447 1.173.489.424.028.858-.085 1.302-.34.445-.254.77-.563.978-.928.202-.374.274-.747.218-1.12l1.68-.962c.172.381.22.845.144 1.392-.072.533-.29 1.07-.655 1.61-.369.531-.887.988-1.554 1.369zm.377-10.189 1.596-.914.749 1.286c.001-.443.061-.84.178-1.189.112-.359.3-.682.565-.969.26-.296.607-.569 1.042-.818l.942 1.618-.264.151c-.463.265-.808.604-1.036 1.017-.225.399-.324.843-.299 1.332.035.484.198.975.488 1.473l1.932 3.318-1.666.954z"/><path d="m926.106 242.968c-1.019.583-2.048.871-3.089.865-1.031-.012-1.994-.309-2.888-.891l-.9-.591-.766-.839-.634-1.088c-.633-1.088-.979-2.168-1.036-3.242-.057-1.073.167-2.055.672-2.947.51-.906 1.269-1.648 2.278-2.225.879-.504 1.777-.784 2.694-.842.912-.067 1.765.084 2.559.452.804.364 1.491.917 2.06 1.661l-1.847 1.057c-.383-.445-.827-.774-1.335-.988-.507-.213-1.037-.297-1.59-.251-.558.037-1.106.209-1.643.517-.648.371-1.124.858-1.426 1.461-.303.604-.417 1.277-.342 2.021.079.729.344 1.481.795 2.255s.982 1.38 1.594 1.816 1.253.678 1.922.725c.673.032 1.339-.14 1.996-.516.537-.307.961-.691 1.273-1.152.311-.461.496-.96.554-1.497.067-.542.004-1.084-.188-1.626l1.847-1.057c.361.875.499 1.748.415 2.62-.076.867-.371 1.675-.885 2.424-.505.743-1.201 1.37-2.09 1.878zm9.501-5.438c-.731.418-1.471.621-2.22.607-.739-.019-1.431-.232-2.074-.638-.649-.415-1.189-.991-1.618-1.729-.435-.746-.673-1.495-.715-2.245-.033-.755.13-1.451.488-2.086.362-.65.914-1.187 1.654-1.611.732-.418 1.467-.618 2.207-.599.743.005 1.432.213 2.066.624.635.411 1.169.99 1.604 1.737.429.737.663 1.488.701 2.253.042.75-.118 1.45-.48 2.1-.353.644-.891 1.173-1.613 1.587zm-.835-1.403c.38-.217.654-.509.823-.876.178-.372.238-.788.181-1.247s-.228-.932-.513-1.421c-.284-.488-.61-.867-.977-1.137-.372-.278-.765-.434-1.179-.467-.405-.039-.798.05-1.177.268-.38.217-.659.512-.837.884-.169.367-.224.78-.167 1.239.052.449.22.918.505 1.407.284.488.612.872.985 1.151.372.278.76.437 1.165.475.415.034.812-.058 1.191-.276zm1.334-8.856 1.666-.954 4.227 7.259-1.666.954zm6.59.062c-.209-.36-.446-.629-.712-.809-.27-.189-.554-.285-.852-.287-.297-.002-.598.085-.904.26-.518.296-.837.724-.955 1.284-.115.545.016 1.14.391 1.785l-1.483-2.229c.041-.565.212-1.056.512-1.473.309-.423.7-.77 1.172-1.04.546-.313 1.083-.472 1.61-.479.536-.012 1.036.126 1.5.414.458.278.851.698 1.178 1.261l2.762 4.742-1.666.954zm8.673 1.175c-.676.386-1.321.614-1.935.683s-1.168-.013-1.662-.247c-.484-.239-.886-.611-1.205-1.116l1.596-.914c.351.389.716.604 1.098.644.381.04.826-.086 1.335-.378.463-.265.784-.54.962-.827.183-.301.202-.576.057-.825-.129-.221-.317-.353-.564-.396s-.56-.018-.937.075l-2.068.52c-.656.167-1.23.176-1.724.028-.489-.162-.881-.497-1.177-1.004-.263-.451-.375-.909-.337-1.374.033-.473.216-.922.549-1.346s.796-.806 1.388-1.145l1.195-.616c1.124-.066 1.639.014 2.104.239.468.212.869.56 1.201 1.046l-1.625.93c-.264-.328-.58-.51-.947-.546-.372-.045-.771.054-1.196.298-.26.148-.468.31-.624.486-.148.171-.238.345-.27.523s0 .35.097.516c.107.185.265.297.474.337.218.035.516.006.893-.087l2.131-.538c.68-.168 1.274-.176 1.782-.024.503.142.904.472 1.205.988.268.461.375.941.32 1.439-.061.49-.274.962-.638 1.416-.365.455-.858.86-1.478 1.215zm10.649-6.391-1.666.954-4.227-7.259 1.666-.954zm-6.59-.062c.209.359.449.634.72.823.265.18.546.271.844.273.297.002.598-.085.904-.26.518-.296.835-.717.95-1.262.118-.56-.01-1.162-.386-1.807l1.483 2.229c-.041.565-.217 1.058-.526 1.481-.3.418-.686.762-1.158 1.032-.546.312-1.087.475-1.623.487-.527.006-1.02-.13-1.478-.408-.464-.288-.86-.713-1.187-1.275l-2.762-4.742 1.666-.954zm14.615-10.56c-.3-.516-.646-.834-1.037-.954-.382-.126-.758-.083-1.128.129-.269.154-.483.369-.643.645s-.231.599-.213.969c.027.366.159.751.396 1.157l-1.552-1.583c.005-.691.156-1.269.453-1.734s.696-.84 1.196-1.127c.509-.291 1.01-.437 1.504-.437.503-.005.97.14 1.4.434.435.28.819.705 1.151 1.277l2.786 4.784-1.68.962zm-10.564 2.397 1.666-.953 4.227 7.258-1.666.954zm6.065.179c-.301-.517-.646-.835-1.037-.955-.382-.126-.758-.083-1.128.129-.269.154-.483.369-.643.645s-.227.597-.199.962c.027.365.159.75.395 1.156l-1.379-2.05c.029-.545.179-1.018.451-1.419.267-.411.614-.738 1.039-.982.473-.27.961-.396 1.465-.378.514.013 1.004.188 1.471.523.471.32.886.789 1.245 1.407l2.633 4.521-1.68.962zm13.696-1.517c-.768.44-1.527.653-2.275.639-.745-.028-1.43-.251-2.055-.667-.625-.417-1.155-.998-1.59-1.745-.43-.737-.67-1.478-.721-2.223-.042-.751.112-1.441.461-2.071.343-.639.881-1.168 1.612-1.586.694-.398 1.394-.595 2.099-.593.708-.013 1.375.177 1.998.57.628.378 1.154.932 1.578 1.66l.402.691-6.082 3.481-.676-1.161 4.402-2.52c-.193-.331-.445-.593-.754-.785s-.648-.286-1.017-.284c-.374-.007-.747.095-1.117.307s-.653.491-.847.835c-.194.345-.272.752-.233 1.221.039.47.217.976.533 1.52.296.507.627.907.996 1.2.362.284.754.448 1.173.49.424.028.858-.085 1.302-.34.445-.254.77-.563.978-.928.202-.374.274-.747.218-1.12l1.68-.962c.172.381.22.845.144 1.392-.072.533-.29 1.07-.655 1.61-.369.531-.887.988-1.554 1.369zm.377-10.189 1.596-.914.749 1.286c.001-.443.061-.839.178-1.189.112-.359.3-.682.565-.969.26-.296.607-.569 1.042-.818l.942 1.618-.264.151c-.462.265-.808.604-1.036 1.018-.225.398-.324.842-.299 1.332.035.483.198.974.488 1.472l1.932 3.318-1.666.954z"/><path d="m474.697 184.076c-1.056 0-1.925-.203-2.608-.608-.682-.416-1.178-.965-1.488-1.648-.309-.693-.464-1.472-.464-2.336v-7.824h1.568v7.744c0 .576.091 1.104.272 1.584.192.469.512.853.96 1.152s1.035.448 1.76.448c1.067 0 1.835-.304 2.304-.912.47-.619.704-1.376.704-2.272v-7.744h1.568v7.824c0 .875-.154 1.659-.464 2.352-.309.683-.805 1.227-1.488 1.632-.682.405-1.557.608-2.624.608zm6.31-8.656h1.488v12.24h-1.488zm4.272 8.656c-.661 0-1.275-.139-1.84-.416-.555-.288-.939-.683-1.152-1.184h-.08v-5.84h.128c.288-.501.688-.875 1.2-1.12.523-.245 1.093-.368 1.712-.368.757 0 1.424.187 2 .56s1.024.896 1.344 1.568.48 1.451.48 2.336-.16 1.669-.48 2.352c-.32.672-.768 1.195-1.344 1.568-.576.363-1.232.544-1.968.544zm-.288-1.328c.789 0 1.403-.283 1.84-.848.448-.565.672-1.328.672-2.288 0-.629-.101-1.179-.304-1.648s-.496-.832-.88-1.088c-.373-.267-.821-.4-1.344-.4-.757 0-1.36.272-1.808.816s-.672 1.317-.672 2.32c0 1.013.224 1.792.672 2.336.459.533 1.067.8 1.824.8zm5.169-11.088h1.488v12.16h-1.488zm6.61 12.416c-.8 0-1.51-.192-2.128-.576-.608-.395-1.083-.928-1.424-1.6-.342-.683-.512-1.445-.512-2.288 0-.853.165-1.616.496-2.288.341-.672.816-1.2 1.424-1.584.618-.384 1.333-.576 2.144-.576.81 0 1.52.192 2.128.576.618.373 1.093.901 1.424 1.584.33.672.496 1.435.496 2.288 0 .843-.171 1.605-.512 2.288-.331.672-.806 1.205-1.424 1.6-.608.384-1.312.576-2.112.576zm-.016-1.328c.512 0 .954-.133 1.328-.4.384-.277.672-.651.864-1.12.202-.469.304-1.008.304-1.616s-.102-1.141-.304-1.6c-.192-.469-.48-.837-.864-1.104-.374-.277-.816-.416-1.328-.416-.502 0-.944.139-1.328.416-.374.267-.662.635-.864 1.104-.192.459-.288.992-.288 1.6s.096 1.147.288 1.616c.202.469.49.843.864 1.12.384.267.826.4 1.328.4zm7.534 1.248c-.597 0-1.125-.091-1.584-.272-.448-.192-.805-.469-1.072-.832-.256-.373-.384-.827-.384-1.36 0-.736.246-1.312.736-1.728.502-.427 1.147-.715 1.936-.864.8-.16 1.718-.245 2.752-.256h.72l.016 1.104h-.8c-.896 0-1.621.064-2.176.192-.554.117-.965.293-1.232.528-.256.235-.384.539-.384.912 0 .288.064.533.192.736.139.192.336.341.592.448.267.107.582.16.944.16.47 0 .907-.085 1.312-.256.406-.171.72-.4.944-.688.235-.288.352-.603.352-.944v-2.768c0-.352-.08-.645-.24-.88-.149-.235-.373-.416-.672-.544-.298-.128-.65-.192-1.056-.192-.661 0-1.168.149-1.52.448-.341.288-.538.645-.592 1.072h-1.488c.054-.8.379-1.472.976-2.016.608-.555 1.478-.832 2.608-.832.736 0 1.36.117 1.872.352.523.235.918.576 1.184 1.024.278.448.416.992.416 1.632v3.52c0 .373.059.629.176.768.128.128.352.192.672.192v1.168h-.784c-.373 0-.693-.096-.96-.288-.256-.192-.41-.437-.464-.736v-.032c-.256.363-.645.661-1.168.896-.522.224-1.13.336-1.824.336zm12.224-1.536-.08-2.288v-8.512h1.488v12.16h-1.408zm-2.864-7.312c.651 0 1.259.144 1.824.432.565.277.949.667 1.152 1.168h.08v5.84h-.128c-.277.501-.677.875-1.2 1.12s-1.093.368-1.712.368c-.747 0-1.408-.187-1.984-.56s-1.024-.896-1.344-1.568-.48-1.451-.48-2.336.16-1.664.48-2.336c.32-.683.768-1.205 1.344-1.568.576-.373 1.232-.56 1.968-.56zm.272 1.328c-.779 0-1.392.283-1.84.848-.437.565-.656 1.328-.656 2.288 0 .629.096 1.179.288 1.648.203.469.496.837.88 1.104.384.256.832.384 1.344.384.757 0 1.36-.272 1.808-.816.459-.544.688-1.317.688-2.32 0-1.013-.229-1.787-.688-2.32-.459-.544-1.067-.816-1.824-.816zm14.538 7.6c-1.12 0-2.117-.261-2.992-.784-.864-.523-1.536-1.259-2.016-2.208-.469-.96-.704-2.064-.704-3.312s.24-2.352.72-3.312c.48-.971 1.152-1.723 2.016-2.256.875-.533 1.877-.8 3.008-.8.971 0 1.845.192 2.624.576s1.413.928 1.904 1.632c.491.693.8 1.493.928 2.4h-1.632c-.107-.619-.341-1.163-.704-1.632-.363-.48-.816-.848-1.36-1.104s-1.152-.384-1.824-.384c-.8 0-1.509.203-2.128.608-.608.395-1.077.96-1.408 1.696s-.496 1.584-.496 2.544.165 1.808.496 2.544c.341.736.816 1.307 1.424 1.712.619.395 1.333.592 2.144.592.672 0 1.275-.128 1.808-.384.544-.267.992-.635 1.344-1.104.363-.48.597-1.029.704-1.648h1.632c-.128.917-.443 1.728-.944 2.432-.491.693-1.131 1.232-1.92 1.616-.779.384-1.653.576-2.624.576zm10.119-12.416h1.696l4.592 12.16h-1.712l-3.728-10.224-3.712 10.224h-1.712zm-1.776 7.136h5.568l.576 1.488h-6.72zm9.204-7.136h4.272c1.237 0 2.288.224 3.152.672.864.437 1.525 1.115 1.984 2.032.458.917.688 2.064.688 3.44 0 1.248-.208 2.32-.624 3.216-.406.896-1.03 1.589-1.872 2.08-.832.48-1.883.72-3.152.72h-4.448zm4.24 10.672c1.365 0 2.405-.379 3.12-1.136.725-.757 1.088-1.915 1.088-3.472 0-.96-.15-1.781-.448-2.464-.299-.683-.763-1.205-1.392-1.568-.619-.363-1.408-.544-2.368-.544h-2.672v9.184z"/><path d="m829.69 184.076c-1.163 0-2.187-.261-3.072-.784-.886-.533-1.574-1.28-2.064-2.24-.48-.96-.72-2.064-.72-3.312s.24-2.352.72-3.312c.49-.96 1.178-1.701 2.064-2.224.896-.533 1.92-.8 3.072-.8 1.162 0 2.181.267 3.056.8.885.523 1.568 1.264 2.048 2.224.49.96.736 2.064.736 3.312s-.246 2.352-.736 3.312c-.48.96-1.163 1.707-2.048 2.24-.875.523-1.894.784-3.056.784zm-.016-1.488c.842 0 1.578-.203 2.208-.608.629-.416 1.12-.987 1.472-1.712s.528-1.568.528-2.528-.176-1.803-.528-2.528-.843-1.291-1.472-1.696c-.63-.416-1.366-.624-2.208-.624-.832 0-1.568.208-2.208.624-.63.405-1.12.971-1.472 1.696-.342.725-.512 1.568-.512 2.528s.17 1.803.512 2.528c.352.725.842 1.296 1.472 1.712.64.405 1.376.608 2.208.608zm7.258-10.928h1.488v12.16h-1.488zm4.272 12.416c-.661 0-1.275-.139-1.84-.416-.555-.288-.939-.683-1.152-1.184h-.08v-5.84h.128c.288-.501.688-.875 1.2-1.12.523-.245 1.093-.368 1.712-.368.757 0 1.424.187 2 .56s1.024.896 1.344 1.568.48 1.451.48 2.336-.16 1.669-.48 2.352c-.32.672-.768 1.195-1.344 1.568-.576.363-1.232.544-1.968.544zm-.288-1.328c.789 0 1.403-.283 1.84-.848.448-.565.672-1.328.672-2.288 0-.629-.101-1.179-.304-1.648s-.496-.832-.88-1.088c-.373-.267-.821-.4-1.344-.4-.747 0-1.349.272-1.808.816-.448.544-.672 1.317-.672 2.32 0 1.013.224 1.792.672 2.336.459.533 1.067.8 1.824.8zm4.337 5.024c-.181 0-.357-.011-.528-.032-.181-.021-.341-.043-.48-.064v-1.328c.139.032.315.048.528.048.448 0 .774-.091.976-.272.214-.181.32-.453.32-.816v-9.888h1.488v9.808c0 .832-.181 1.461-.544 1.888-.352.437-.938.656-1.76.656zm.816-16.112h1.488v1.792h-1.488zm6.626 12.416c-.854 0-1.584-.192-2.192-.576-.608-.395-1.072-.928-1.392-1.6-.31-.672-.464-1.44-.464-2.304s.16-1.632.48-2.304.778-1.195 1.376-1.568c.597-.373 1.296-.56 2.096-.56.757 0 1.429.171 2.016.512.586.341 1.045.827 1.376 1.456.33.629.496 1.36.496 2.192v.816h-6.848l.016-1.2h5.328c0-.459-.096-.869-.288-1.232-.192-.373-.47-.667-.832-.88-.352-.224-.763-.336-1.232-.336-.438 0-.848.112-1.232.336-.374.213-.678.555-.912 1.024-.235.469-.352 1.056-.352 1.76 0 .651.096 1.211.288 1.68.202.469.496.832.88 1.088.384.245.842.368 1.376.368.576 0 1.061-.123 1.456-.368.405-.245.688-.576.848-.992h1.504c-.054.416-.24.832-.56 1.248-.31.405-.742.747-1.296 1.024-.555.277-1.2.416-1.936.416zm8.34 0c-.8 0-1.504-.187-2.112-.56s-1.083-.896-1.424-1.568c-.331-.672-.496-1.435-.496-2.288 0-.875.165-1.653.496-2.336.341-.683.816-1.216 1.424-1.6s1.317-.576 2.128-.576c.693 0 1.322.144 1.888.432.565.288 1.013.677 1.344 1.168.341.48.533 1.019.576 1.616h-1.536c-.075-.363-.214-.688-.416-.976-.192-.288-.448-.512-.768-.672-.31-.16-.662-.24-1.056-.24-.79 0-1.408.288-1.856.864-.438.576-.656 1.355-.656 2.336 0 .629.096 1.173.288 1.632s.474.816.848 1.072c.373.245.816.368 1.328.368.576 0 1.066-.149 1.472-.448.416-.299.688-.709.816-1.232h1.536c-.064.576-.272 1.093-.624 1.552-.342.459-.795.816-1.36 1.072-.555.256-1.168.384-1.84.384zm8.216-.208c-.981 0-1.685-.192-2.112-.576-.426-.395-.64-.997-.64-1.808v-4.736h-1.584v-1.328c.534 0 .918-.037 1.152-.112.235-.085.379-.213.432-.384.064-.181.096-.48.096-.896v-.768h1.392v2.16h2.368v1.328h-2.368v4.352c0 .523.118.885.352 1.088.235.203.614.304 1.136.304.384 0 .667-.005.848-.016v1.344c-.192.011-.378.021-.56.032-.181.011-.352.016-.512.016z"/><path d="m710.536 234.66h1.568v12.16h-1.568zm1.264 5.248h2.96c.811 0 1.435-.149 1.872-.448.448-.309.672-.779.672-1.408 0-.405-.091-.747-.272-1.024-.181-.288-.459-.507-.832-.656s-.853-.224-1.44-.224h-2.96v-1.488h3.296c.768 0 1.429.128 1.984.384.565.245 1.003.624 1.312 1.136s.464 1.141.464 1.888c0 .683-.144 1.275-.432 1.776-.277.491-.699.875-1.264 1.152-.565.267-1.259.4-2.08.4h-3.28zm10.626 7.088c-.598 0-1.126-.091-1.584-.272-.448-.192-.806-.469-1.072-.832-.256-.373-.384-.827-.384-1.36 0-.736.245-1.312.736-1.728.501-.427 1.146-.715 1.936-.864.8-.16 1.717-.245 2.752-.256h.72l.016 1.104h-.8c-.896 0-1.622.064-2.176.192-.555.117-.966.293-1.232.528-.256.235-.384.539-.384.912 0 .288.064.533.192.736.138.192.336.341.592.448.266.107.581.16.944.16.469 0 .906-.085 1.312-.256.405-.171.72-.4.944-.688.234-.288.352-.603.352-.944v-2.768c0-.352-.08-.645-.24-.88-.15-.235-.374-.416-.672-.544-.299-.128-.651-.192-1.056-.192-.662 0-1.168.149-1.52.448-.342.288-.539.645-.592 1.072h-1.488c.053-.8.378-1.472.976-2.016.608-.555 1.477-.832 2.608-.832.736 0 1.36.117 1.872.352.522.235.917.576 1.184 1.024.277.448.416.992.416 1.632v3.52c0 .373.058.629.176.768.128.128.352.192.672.192v1.168h-.784c-.374 0-.694-.096-.96-.288-.256-.192-.411-.437-.464-.736v-.032c-.256.363-.646.661-1.168.896-.523.224-1.131.336-1.824.336zm8.463-.176-3.2-8.4h1.632l2.336 6.576 2.256-6.576h1.632l-4.512 12.24h-1.472z"/><path d="m324.784 239.588h3.328c.64 0 1.147-.149 1.52-.448.384-.309.576-.725.576-1.248 0-.597-.197-1.035-.592-1.312-.395-.288-.976-.432-1.744-.432h-3.024v-1.488h2.944c.875 0 1.611.128 2.208.384.608.245 1.067.613 1.376 1.104.32.48.48 1.067.48 1.76 0 .971-.336 1.739-1.008 2.304-.672.555-1.605.832-2.8.832h-3.264zm-1.248-4.928h1.568v12.16h-1.568zm1.2 6.144h1.952l5.68 6.016h-2zm11.746 6.272c-.8 0-1.509-.192-2.128-.576-.608-.395-1.083-.928-1.424-1.6-.341-.683-.512-1.445-.512-2.288 0-.853.165-1.616.496-2.288.341-.672.816-1.2 1.424-1.584.619-.384 1.333-.576 2.144-.576s1.52.192 2.128.576c.619.373 1.093.901 1.424 1.584.331.672.496 1.435.496 2.288 0 .843-.171 1.605-.512 2.288-.331.672-.805 1.205-1.424 1.6-.608.384-1.312.576-2.112.576zm-.016-1.328c.512 0 .955-.133 1.328-.4.384-.277.672-.651.864-1.12.203-.469.304-1.008.304-1.616s-.101-1.141-.304-1.6c-.192-.469-.48-.837-.864-1.104-.373-.277-.816-.416-1.328-.416-.501 0-.944.139-1.328.416-.373.267-.661.635-.864 1.104-.192.459-.288.992-.288 1.6s.096 1.147.288 1.616c.203.469.491.843.864 1.12.384.267.827.4 1.328.4zm7.205 1.072-3.2-8.4h1.632l2.336 6.576 2.256-6.576h1.632l-4.512 12.24h-1.472zm7.842.176c-.597 0-1.125-.091-1.584-.272-.448-.192-.805-.469-1.072-.832-.256-.373-.384-.827-.384-1.36 0-.736.246-1.312.736-1.728.502-.427 1.147-.715 1.936-.864.8-.16 1.718-.245 2.752-.256h.72l.016 1.104h-.8c-.896 0-1.621.064-2.176.192-.554.117-.965.293-1.232.528-.256.235-.384.539-.384.912 0 .288.064.533.192.736.139.192.336.341.592.448.267.107.582.16.944.16.47 0 .907-.085 1.312-.256.406-.171.72-.4.944-.688.235-.288.352-.603.352-.944v-2.768c0-.352-.08-.645-.24-.88-.149-.235-.373-.416-.672-.544-.298-.128-.65-.192-1.056-.192-.661 0-1.168.149-1.52.448-.341.288-.538.645-.592 1.072h-1.488c.054-.8.379-1.472.976-2.016.608-.555 1.478-.832 2.608-.832.736 0 1.36.117 1.872.352.523.235.918.576 1.184 1.024.278.448.416.992.416 1.632v3.52c0 .373.059.629.176.768.128.128.352.192.672.192v1.168h-.784c-.373 0-.693-.096-.96-.288-.256-.192-.41-.437-.464-.736v-.032c-.256.363-.645.661-1.168.896-.522.224-1.13.336-1.824.336zm6.16-12.336h1.488v12.16h-1.488zm6.625 12.208c-.981 0-1.685-.192-2.112-.576-.427-.395-.64-.997-.64-1.808v-4.736h-1.584v-1.328c.533 0 .917-.037 1.152-.112.235-.085.379-.213.432-.384.064-.181.096-.48.096-.896v-.768h1.392v2.16h2.368v1.328h-2.368v4.352c0 .523.117.885.352 1.088s.613.304 1.136.304c.384 0 .667-.005.848-.016v1.344c-.192.011-.379.021-.56.032s-.352.016-.512.016zm2.149-8.448h1.488v8.4h-1.488zm0-3.76h1.488v1.792h-1.488zm6.595 12.416c-.854 0-1.584-.192-2.192-.576-.608-.395-1.072-.928-1.392-1.6-.31-.672-.464-1.44-.464-2.304s.16-1.632.48-2.304.778-1.195 1.376-1.568c.597-.373 1.296-.56 2.096-.56.757 0 1.429.171 2.016.512.586.341 1.045.827 1.376 1.456.33.629.496 1.36.496 2.192v.816h-6.848l.016-1.2h5.328c0-.459-.096-.869-.288-1.232-.192-.373-.47-.667-.832-.88-.352-.224-.763-.336-1.232-.336-.438 0-.848.112-1.232.336-.374.213-.678.555-.912 1.024-.235.469-.352 1.056-.352 1.76 0 .651.096 1.211.288 1.68.202.469.496.832.88 1.088.384.245.842.368 1.376.368.576 0 1.061-.123 1.456-.368.405-.245.688-.576.848-.992h1.504c-.054.416-.24.832-.56 1.248-.31.405-.742.747-1.296 1.024-.555.277-1.2.416-1.936.416zm7.907 0c-.746 0-1.397-.123-1.952-.368-.544-.256-.96-.608-1.248-1.056-.288-.459-.448-.987-.48-1.584h1.44c.128.597.363 1.029.704 1.296.352.256.864.384 1.536.384.619 0 1.104-.096 1.456-.288s.528-.464.528-.816c0-.299-.112-.539-.336-.72-.213-.181-.528-.336-.944-.464l-2.144-.608c-.618-.181-1.093-.453-1.424-.816-.32-.363-.48-.821-.48-1.376 0-.491.128-.928.384-1.312.267-.384.64-.677 1.12-.88s1.035-.304 1.664-.304c.672 0 1.259.117 1.76.352.512.224.912.549 1.2.976.288.416.448.912.48 1.488h-1.504c-.085-.491-.293-.859-.624-1.104-.33-.256-.778-.384-1.344-.384-.33 0-.624.048-.88.144-.256.085-.453.208-.592.368-.128.16-.192.357-.192.592 0 .245.086.443.256.592.182.149.486.288.912.416l2.144.608c.64.181 1.142.459 1.504.832.363.373.544.853.544 1.44 0 .523-.149.981-.448 1.376-.288.384-.698.683-1.232.896-.522.213-1.125.32-1.808.32z"/></g><path d="m557.707 191.527c.391-.39.391-1.024 0-1.414l-6.364-6.364c-.39-.391-1.024-.391-1.414 0-.391.39-.391 1.024 0 1.414l5.657 5.657-5.657 5.657c-.391.39-.391 1.024 0 1.414.39.391 1.024.391 1.414 0zm-146.707-.707v1h146v-1-1h-146z" fill="url(#f)"/><path d="m708.293 255.113c-.391.39-.391 1.024 0 1.414l6.364 6.364c.39.391 1.024.391 1.414 0 .391-.39.391-1.024 0-1.414l-5.657-5.657 5.657-5.657c.391-.39.391-1.024 0-1.414-.39-.391-1.024-.391-1.414 0zm82.707.707v-1h-82v1 1h82z" fill="url(#g)"/><path d="m871.707 195.527c.391-.39.391-1.024 0-1.414l-6.364-6.364c-.39-.391-1.024-.391-1.414 0-.391.39-.391 1.024 0 1.414l5.657 5.657-5.657 5.657c-.391.39-.391 1.024 0 1.414.39.391 1.024.391 1.414 0zm-102.707-.707v1h102v-1-1h-102z" fill="url(#h)"/><path d="m321.293 255.113c-.391.39-.391 1.024 0 1.414l6.364 6.364c.39.391 1.024.391 1.414 0 .391-.39.391-1.024 0-1.414l-5.657-5.657 5.657-5.657c.391-.39.391-1.024 0-1.414-.39-.391-1.024-.391-1.414 0zm111.707.707v-1h-111v1 1h111z" fill="url(#i)"/></svg>