<svg preserveAspectRatio="none" width="100%" height="100%" overflow="visible" style="display: block;" viewBox="0 0 272.447 240.671" fill="none" xmlns="http://www.w3.org/2000/svg">
<g id="Ellipse 98" filter="url(#filter0_d_0_7)">
<mask id="path-1-inside-1_0_7" fill="white">
<path d="M167.647 135.871C167.647 127.63 164.337 119.727 158.444 113.9C152.551 108.074 144.558 104.8 136.224 104.8C127.89 104.8 119.897 108.074 114.004 113.9C108.111 119.727 104.8 127.63 104.8 135.871L111.094 135.871C111.094 129.281 113.741 122.961 118.454 118.301C123.167 113.641 129.559 111.023 136.224 111.023C142.889 111.023 149.28 113.641 153.993 118.301C158.706 122.961 161.354 129.281 161.354 135.871H167.647Z"/>
</mask>
<path d="M167.647 135.871C167.647 127.63 164.337 119.727 158.444 113.9C152.551 108.074 144.558 104.8 136.224 104.8C127.89 104.8 119.897 108.074 114.004 113.9C108.111 119.727 104.8 127.63 104.8 135.871L111.094 135.871C111.094 129.281 113.741 122.961 118.454 118.301C123.167 113.641 129.559 111.023 136.224 111.023C142.889 111.023 149.28 113.641 153.993 118.301C158.706 122.961 161.354 129.281 161.354 135.871H167.647Z" stroke="var(--stroke-0, black)" stroke-width="4" shape-rendering="crispEdges" mask="url(#path-1-inside-1_0_7)"/>
</g>
<defs>
<filter id="filter0_d_0_7" x="0" y="0" width="272.447" height="240.671" filterUnits="userSpaceOnUse" color-interpolation-filters="sRGB">
<feFlood flood-opacity="0" result="BackgroundImageFix"/>
<feColorMatrix in="SourceAlpha" type="matrix" values="0 0 0 0 0 0 0 0 0 0 0 0 0 0 0 0 0 0 127 0" result="hardAlpha"/>
<feMorphology radius="18" operator="dilate" in="SourceAlpha" result="effect1_dropShadow_0_7"/>
<feOffset/>
<feGaussianBlur stdDeviation="43.4"/>
<feComposite in2="hardAlpha" operator="out"/>
<feColorMatrix type="matrix" values="0 0 0 0 1 0 0 0 0 1 0 0 0 0 1 0 0 0 0.25 0"/>
<feBlend mode="normal" in2="BackgroundImageFix" result="effect1_dropShadow_0_7"/>
<feBlend mode="normal" in="SourceGraphic" in2="effect1_dropShadow_0_7" result="shape"/>
</filter>
</defs>
</svg>
