<svg preserveAspectRatio="none" width="100%" height="100%" overflow="visible" style="display: block;" viewBox="0 0 30.1122 37.8487" fill="none" xmlns="http://www.w3.org/2000/svg">
<g id="Group 54">
<path id="Vector" d="M1.72037 37.8487H28.3916C29.3375 37.8487 30.112 37.0742 30.112 36.1199V1.72882C30.112 0.77452 29.3426 4.16636e-05 28.3916 4.16636e-05H8.78345C8.728 4.16636e-05 8.67088 0.0134823 8.62384 0.0302828C8.5768 0.052124 8.52976 0.0823634 8.49112 0.121008L0.120966 8.53331C0.120966 8.53331 0.115926 8.53835 0.112566 8.54171C0.0436811 8.61563 0 8.71812 0 8.82564V36.115C0 37.0693 0.76949 37.8438 1.72039 37.8438L1.72037 37.8487ZM8.36152 1.43657V7.52161C8.36152 8.01218 7.96502 8.40701 7.47947 8.40701H1.42798L8.36152 1.43657ZM0.834792 9.25232H7.47939C8.42526 9.25232 9.19978 8.4778 9.19978 7.52354V0.84368H28.3861C28.8716 0.84368 29.2681 1.24354 29.2681 1.72908V36.1202C29.2681 36.6108 28.8716 37.0056 28.3861 37.0056H1.71994C1.2344 37.0056 0.837889 36.6057 0.837889 36.1202V9.25237L0.834792 9.25232Z" fill="var(--fill-0, black)"/>
<path id="Vector_2" d="M6.80425 23.2889L14.8553 27.706C14.8553 27.706 14.8721 27.7111 14.8805 27.7144C14.8889 27.7195 14.9023 27.7228 14.9107 27.7279C14.9578 27.7447 15.0048 27.7581 15.0518 27.7581C15.0989 27.7581 15.151 27.7447 15.193 27.7279C15.2064 27.7279 15.2148 27.7195 15.2232 27.7144C15.2316 27.7144 15.24 27.7094 15.2484 27.706L23.2994 23.2889C23.4321 23.215 23.5195 23.0739 23.5195 22.9193V14.089V14.0638C23.5195 14.0503 23.5195 14.0386 23.5145 14.0251C23.5061 13.9814 23.4977 13.9428 23.4758 13.9041C23.4758 13.8991 23.4758 13.8907 23.4708 13.8873V13.8823C23.4456 13.8386 23.4153 13.8 23.3767 13.7697C23.3683 13.7613 23.3599 13.7563 23.3465 13.7479C23.333 13.7395 23.3213 13.7261 23.3078 13.7177L15.2568 9.30055C15.1325 9.23166 14.9813 9.23166 14.8569 9.30055L6.80593 13.7177C6.80593 13.7177 6.78073 13.7395 6.76728 13.7479C6.75888 13.7563 6.74544 13.7613 6.73704 13.7697C6.6984 13.8 6.66816 13.8386 6.64296 13.8823V13.8873C6.64296 13.8924 6.64296 13.9008 6.63792 13.9041C6.62112 13.9428 6.60768 13.9814 6.59928 14.0251C6.59928 14.0386 6.59424 14.0503 6.59424 14.0638V14.089V22.9193C6.59424 23.0739 6.67656 23.2167 6.81433 23.2889H6.80425ZM22.6844 22.669L15.4716 26.6255V18.7509L22.6844 14.7943V22.669ZM7.87606 14.0889L15.0501 10.1542L22.2242 14.0889L15.0454 18.0237L7.8666 14.0889H7.87606ZM7.42075 14.7979L14.6335 18.7545V26.6292L7.42075 22.6726V14.7979Z" fill="var(--fill-0, black)"/>
<path id="Vector_3" d="M3.76332 31.1217H4.59831C5.05865 31.1217 5.4333 30.7437 5.4333 30.2783V29.4349C5.4333 28.9712 5.05865 28.5916 4.59831 28.5916H3.76332C3.30298 28.5916 2.92832 28.9696 2.92832 29.4349V30.2783C2.92832 30.742 3.30298 31.1217 3.76332 31.1217ZM3.76332 29.4399H4.59831V30.2833H3.76332V29.4399Z" fill="var(--fill-0, black)"/>
<path id="Vector_4" d="M3.76332 35.3236H4.59831C5.05865 35.3236 5.4333 34.9456 5.4333 34.4802V33.6368C5.4333 33.1732 5.05865 32.7935 4.59831 32.7935H3.76332C3.30298 32.7935 2.92832 33.1715 2.92832 33.6368V34.4802C2.92832 34.9439 3.30298 35.3236 3.76332 35.3236ZM3.76332 33.6418H4.59831V34.4852H3.76332V33.6418Z" fill="var(--fill-0, black)"/>
<path id="Vector_5" d="M18.4 34.0635H7.52672C7.29487 34.0635 7.11006 34.2534 7.11006 34.4852C7.11006 34.7171 7.29487 34.9069 7.52672 34.9069H18.4C18.6319 34.9069 18.8167 34.7171 18.8167 34.4852C18.8167 34.2534 18.6319 34.0635 18.4 34.0635Z" fill="var(--fill-0, black)"/>
<path id="Vector_6" d="M26.7601 29.8584H15.8867C15.6549 29.8584 15.4701 30.0482 15.4701 30.2801C15.4701 30.5119 15.6549 30.7018 15.8867 30.7018H26.7601C26.9919 30.7018 27.1767 30.5119 27.1767 30.2801C27.1767 30.0482 26.9919 29.8584 26.7601 29.8584Z" fill="var(--fill-0, black)"/>
<path id="Vector_7" d="M26.7601 34.0635H20.4902C20.2583 34.0635 20.0735 34.2534 20.0735 34.4852C20.0735 34.7171 20.2583 34.9069 20.4902 34.9069H26.7601C26.992 34.9069 27.1768 34.7171 27.1768 34.4852C27.1768 34.2534 26.992 34.0635 26.7601 34.0635Z" fill="var(--fill-0, black)"/>
<path id="Vector_8" d="M7.52672 30.7H13.7967C14.0285 30.7 14.2134 30.5102 14.2134 30.2783C14.2134 30.0465 14.0285 29.8566 13.7967 29.8566H7.52672C7.29487 29.8566 7.11006 30.0465 7.11006 30.2783C7.11006 30.5102 7.29487 30.7 7.52672 30.7Z" fill="var(--fill-0, black)"/>
<path id="Vector_9" d="M24.6703 5.88873H26.3436C26.8039 5.88873 27.1786 5.51071 27.1786 5.04535V3.36358C27.1786 2.89989 26.8039 2.5202 26.3436 2.5202H24.6703C24.2099 2.5202 23.8353 2.89821 23.8353 3.36358V5.04535C23.8353 5.50904 24.2099 5.88873 24.6703 5.88873ZM24.6703 3.36358H26.3436V5.04535H24.6703V3.36358Z" fill="var(--fill-0, black)"/>
<path id="Vector_10" d="M19.6519 5.88873H21.3252C21.7855 5.88873 22.1602 5.51071 22.1602 5.04535V3.36358C22.1602 2.89989 21.7856 2.5202 21.3252 2.5202H19.6519C19.1915 2.5202 18.8169 2.89821 18.8169 3.36358V5.04535C18.8169 5.50904 19.1915 5.88873 19.6519 5.88873ZM19.6519 3.36358H21.3252V5.04535H19.6519V3.36358Z" fill="var(--fill-0, black)"/>
</g>
</svg>
