<svg preserveAspectRatio="none" width="100%" height="100%" overflow="visible" style="display: block;" viewBox="0 0 149.051 95.7188" fill="none" xmlns="http://www.w3.org/2000/svg">
<path id="Vector" d="M87.2695 3.5C95.6841 3.5 103.309 6.91914 108.816 12.4365L109.327 12.96C113.937 17.7997 116.974 24.1618 117.614 31.21H118.578V31.4199C125.595 32.2241 131.892 35.413 136.625 40.1543L137.136 40.6777C142.346 46.1486 145.551 53.5651 145.551 61.7188C145.551 70.1384 142.136 77.7682 136.624 83.2812C131.113 88.7979 123.49 92.2187 115.078 92.2188H30.5625C23.0881 92.2187 16.3218 89.1803 11.4268 84.2852L11.4248 84.2842C6.53315 79.3875 3.50009 72.6104 3.5 65.1367C3.5 57.6579 6.53369 50.8854 11.4238 45.9854L11.4248 45.9844C15.3375 42.0677 20.4538 39.3391 26.1709 38.4053C26.7513 31.9011 29.6321 26.0525 33.9854 21.6904L33.9863 21.6885C38.8782 16.7916 45.6505 13.7539 53.1201 13.7539C55.793 13.7539 58.3936 14.1539 60.8633 14.8936L61.3555 15.0459L61.3584 15.0469C61.8998 15.2208 62.4343 15.4115 62.9609 15.6172C65.1379 12.7376 67.8103 10.2566 70.8574 8.30371L71.3047 8.02246C75.9549 5.15367 81.427 3.50002 87.2695 3.5Z" fill="var(--fill-0, white)" stroke="var(--stroke-0, black)" stroke-width="7"/>
</svg>
