<svg preserveAspectRatio="none" width="100%" height="100%" overflow="visible" style="display: block;" viewBox="0 0 48.0182 14.8292" fill="none" xmlns="http://www.w3.org/2000/svg">
<g id="Money">
<path d="M0 11.7284V0H2.1898L4.69009 6.63536C5.09863 7.77607 5.47449 8.90071 5.98108 10.3145H6.04645C6.56939 8.72398 6.8472 8.001 7.40282 6.4747L9.83774 0H11.9295V11.7284H10.6058V5.46253C10.6058 4.06476 10.6221 2.7152 10.6385 1.10857H10.5568C10.2136 2.07255 9.77237 3.27752 9.3148 4.49855L6.60207 11.7284H5.31107L2.51663 4.30576C2.10809 3.21325 1.74857 2.20108 1.37271 1.10857H1.291C1.291 2.07255 1.32368 2.90799 1.32368 4.11296V11.7284H0Z" fill="var(--fill-0, black)"/>
<path d="M17.6657 11.9212C15.002 11.9212 13.3351 10.186 13.3351 7.53508C13.3351 4.85201 15.0674 3.06866 17.6657 3.06866C20.264 3.06866 21.9963 4.85201 21.9963 7.53508C21.9963 10.1699 20.2804 11.9212 17.6657 11.9212ZM17.6657 10.8929C19.594 10.8929 20.6072 9.46303 20.6072 7.53508C20.6072 5.60712 19.594 4.0969 17.6657 4.0969C15.7047 4.0969 14.7078 5.60712 14.7078 7.53508C14.7078 9.46303 15.721 10.8929 17.6657 10.8929Z" fill="var(--fill-0, black)"/>
<path d="M23.3048 11.7284V4.85201C23.3048 4.16116 23.3048 3.8077 23.2884 3.27752H24.5631V3.61491C24.5631 3.8559 24.5631 4.27362 24.5467 4.54675H24.6284C25.1023 3.77557 26.0011 3.08472 27.5209 3.08472C29.4983 3.08472 30.5768 4.28969 30.5768 6.4265V11.7284H29.2858V6.69963C29.2858 5.02874 28.6485 4.16116 27.1941 4.16116C25.5109 4.16116 24.5958 5.36613 24.5958 7.06915V11.7284H23.3048Z" fill="var(--fill-0, black)"/>
<path d="M36.0259 11.9212C33.4276 11.9212 31.7934 10.2503 31.7934 7.50294C31.7934 4.91628 33.4276 3.05259 35.9606 3.05259C38.8204 3.05259 39.9806 5.093 39.9806 7.48688V7.74394H33.1171C33.1171 9.2863 34.0976 10.8769 36.1076 10.8769C37.464 10.8769 38.3791 10.1378 38.7223 9.25417L39.9153 9.62369C39.2779 11.0375 37.9379 11.9212 36.0259 11.9212ZM33.1171 6.77996H38.5916C38.5426 5.20547 37.6274 4.0487 35.9442 4.0487C34.1139 4.0487 33.1988 5.54286 33.1171 6.77996Z" fill="var(--fill-0, black)"/>
<path d="M41.7266 14.8292C41.3835 14.8292 41.0893 14.8131 40.8279 14.7488L40.7461 13.7367C40.9259 13.7849 41.2854 13.833 41.5305 13.833C42.7072 13.833 42.8706 13.3029 43.3935 12.0176L43.4752 11.7926L40.0761 3.27752H41.5305L42.8379 6.89242C43.3118 8.25806 43.6877 9.20597 44.0799 10.4109H44.1616C44.5538 9.2381 44.9623 8.0492 45.3872 6.84423L46.6455 3.27752H48.0182L44.4557 12.4835C43.802 14.1865 43.2464 14.8292 41.7266 14.8292Z" fill="var(--fill-0, black)"/>
</g>
</svg>
